<?xml version="1.0" standalone="no"?>
<!DOCTYPE svg PUBLIC "-//W3C//DTD SVG 20010904//EN"
 "http://www.w3.org/TR/2001/REC-SVG-20010904/DTD/svg10.dtd">
<svg version="1.0" xmlns="http://www.w3.org/2000/svg"
 width="1952.000000pt" height="1952.000000pt" viewBox="0 0 1952.000000 1952.000000"
 preserveAspectRatio="xMidYMid meet">
<metadata>
Created by potrace 1.14, written by Peter Selinger 2001-2017
</metadata>
<g transform="translate(0.000000,1952.000000) scale(0.100000,-0.100000)"
fill="#000000" stroke="none">
<path d="M2089 13435 c-3 -2 -30 -7 -60 -10 -30 -3 -65 -7 -79 -10 -14 -2 -43
-7 -66 -10 -22 -3 -56 -10 -74 -15 -18 -5 -35 -9 -39 -8 -3 0 -8 -1 -11 -2 -3
-1 -12 -3 -20 -5 -85 -16 -315 -93 -400 -133 -19 -9 -37 -17 -40 -17 -7 -2
-138 -68 -170 -87 -111 -63 -140 -81 -140 -87 0 -3 -12 -12 -27 -18 -45 -20
-231 -173 -323 -265 -89 -89 -140 -148 -203 -232 -20 -28 -42 -57 -48 -64 -62
-75 -248 -441 -265 -522 0 -3 -3 -12 -6 -20 -14 -35 -30 -87 -34 -110 -3 -14
-12 -52 -21 -85 -9 -33 -17 -69 -19 -80 -1 -11 -3 -20 -4 -20 -1 0 -3 -16 -5
-36 -1 -20 -5 -45 -8 -55 -27 -91 -29 -650 -2 -694 2 -3 6 -29 10 -59 4 -30 9
-63 11 -75 7 -37 23 -130 29 -170 3 -21 7 -41 9 -45 2 -3 7 -30 10 -59 3 -29
9 -65 13 -80 3 -15 7 -38 9 -52 1 -14 3 -25 4 -25 2 0 3 -9 13 -85 3 -19 7
-46 10 -60 6 -22 9 -41 22 -125 4 -23 13 -74 22 -125 4 -19 7 -42 8 -50 1 -8
5 -31 9 -50 18 -98 26 -146 31 -185 3 -16 9 -57 15 -90 6 -33 12 -71 14 -85 7
-41 47 -273 52 -300 3 -14 7 -38 9 -55 3 -16 7 -41 10 -55 5 -22 18 -102 30
-185 3 -16 9 -52 14 -80 6 -27 13 -66 15 -85 3 -19 8 -46 10 -60 5 -26 34
-204 42 -255 26 -166 83 -392 120 -472 8 -17 14 -35 14 -40 0 -4 7 -21 15 -37
9 -16 17 -37 19 -45 2 -9 14 -38 27 -66 13 -27 23 -52 24 -55 0 -3 4 -10 8
-16 4 -7 24 -45 45 -85 39 -74 150 -260 162 -269 3 -3 17 -21 30 -40 13 -19
27 -37 30 -40 3 -3 17 -21 30 -40 13 -19 29 -40 35 -46 5 -6 30 -36 55 -65 73
-88 248 -256 350 -338 52 -42 97 -79 100 -82 6 -7 208 -140 235 -155 11 -6 38
-21 60 -34 72 -41 200 -104 208 -102 4 1 7 -3 7 -10 0 -6 3 -8 6 -5 4 4 19 0
33 -7 34 -18 89 -42 120 -51 13 -4 40 -14 60 -23 20 -9 45 -17 56 -19 11 -2
27 -6 35 -10 8 -3 20 -7 25 -8 6 -2 63 -17 129 -34 65 -17 137 -33 160 -36 22
-3 48 -7 56 -10 15 -5 57 -11 145 -22 76 -9 2949 -9 3039 0 43 5 88 10 100 13
11 2 36 6 56 9 42 6 74 12 115 21 17 4 39 8 50 10 27 4 60 12 60 14 0 1 11 3
25 6 14 2 84 23 155 46 72 23 132 42 135 43 21 7 70 27 93 40 16 8 33 13 38 9
5 -3 9 0 9 5 0 6 7 11 15 11 8 0 23 4 33 9 9 5 67 34 128 64 61 30 130 67 152
81 23 14 44 26 47 26 10 0 300 194 315 211 3 3 23 18 45 35 21 16 46 36 55 44
9 8 42 38 74 65 225 192 467 482 601 720 16 28 35 58 43 68 8 9 12 17 8 17 -4
0 1 12 11 28 16 23 42 73 48 92 1 3 14 32 29 65 24 52 68 160 71 175 2 10 58
188 93 295 20 61 37 112 37 115 1 3 4 12 8 20 12 32 47 130 47 135 1 6 8 30
17 53 3 9 7 19 8 22 7 29 49 157 54 165 3 6 6 15 7 20 2 14 43 135 54 160 5
11 41 119 80 240 39 121 75 229 81 240 7 17 46 136 55 170 2 6 25 74 52 153
27 78 48 142 46 142 -1 0 3 12 11 27 8 15 12 30 9 35 -3 4 -1 8 4 8 5 0 9 6 9
13 1 32 157 473 171 484 30 23 216 112 244 117 15 3 31 7 36 10 9 5 44 12 112
22 96 14 289 5 344 -16 14 -5 26 -7 26 -4 0 4 6 2 13 -3 6 -6 26 -13 42 -17
43 -10 185 -82 216 -108 20 -18 41 -70 93 -228 37 -113 71 -214 76 -225 5 -11
36 -103 70 -205 33 -102 65 -193 70 -202 6 -10 10 -26 10 -36 0 -10 3 -22 7
-26 4 -3 8 -12 9 -20 2 -13 80 -247 94 -281 8 -20 43 -123 46 -137 1 -5 3 -10
4 -13 1 -3 4 -9 5 -15 1 -5 3 -11 5 -12 1 -2 3 -10 5 -18 2 -8 45 -134 95
-280 50 -146 93 -272 95 -280 2 -8 29 -91 59 -184 31 -93 56 -175 56 -182 0
-7 6 -28 14 -46 8 -18 26 -67 41 -108 31 -86 146 -333 158 -338 4 -2 7 -9 7
-15 0 -7 18 -40 40 -75 22 -34 40 -67 40 -72 0 -6 4 -10 8 -10 5 0 15 -12 23
-27 16 -33 78 -122 97 -142 7 -8 21 -26 30 -40 16 -25 24 -35 72 -91 12 -14
40 -47 63 -74 79 -92 253 -261 343 -333 20 -15 52 -43 72 -60 21 -18 43 -33
50 -33 6 0 12 -4 12 -9 0 -10 260 -184 323 -216 20 -11 37 -23 37 -27 0 -5 9
-8 20 -8 11 0 20 -4 20 -10 0 -5 9 -10 20 -10 11 0 20 -3 20 -8 0 -4 15 -14
33 -21 17 -8 78 -36 134 -63 56 -26 108 -48 116 -48 7 0 17 -3 20 -7 33 -32
455 -150 607 -169 19 -2 46 -6 59 -10 13 -3 54 -8 90 -12 95 -10 2954 -9 3031
1 36 5 79 10 95 12 17 2 44 6 60 10 17 3 39 7 50 9 11 2 34 6 50 10 17 3 39 8
50 10 11 2 40 9 65 16 25 7 52 13 60 15 34 7 241 77 267 90 15 8 32 15 36 15
20 0 268 122 362 177 187 111 369 249 518 393 43 41 82 77 88 78 5 2 9 7 9 12
0 4 29 38 65 76 36 38 65 72 65 75 0 3 10 17 23 31 12 13 31 37 42 52 11 16
29 40 41 55 20 25 109 163 147 226 34 58 157 314 157 327 0 8 4 18 9 24 8 9
71 195 87 259 4 17 8 32 9 35 7 24 29 129 30 145 2 11 7 47 14 80 6 33 13 78
16 100 4 22 8 51 11 65 2 14 7 41 10 60 3 19 7 42 9 50 2 8 7 35 10 60 3 25
10 68 16 95 5 28 11 66 14 85 3 19 7 46 10 60 5 24 22 125 30 180 3 14 6 34 8
45 7 29 17 95 22 132 2 17 9 58 15 90 5 32 12 72 15 88 3 17 8 46 12 65 3 19
8 46 9 60 1 14 5 39 9 55 7 39 23 129 31 180 3 22 10 60 15 85 5 25 11 61 13
80 3 19 14 89 25 155 12 66 24 136 27 155 3 19 12 73 20 120 9 47 17 96 19
110 1 14 6 41 10 60 3 19 8 51 11 70 2 19 6 42 9 50 3 8 7 33 10 55 7 50 13
84 19 114 21 97 29 482 13 601 -15 113 -46 281 -57 310 -1 3 -3 10 -4 15 -9
50 -72 239 -102 305 -108 235 -186 366 -313 525 -63 80 -229 248 -290 295 -18
14 -47 37 -64 52 -18 15 -35 28 -39 28 -4 0 -13 6 -20 13 -14 14 -123 86 -203
134 -145 86 -482 222 -592 238 -12 2 -26 5 -30 8 -5 3 -28 8 -53 12 -25 4 -47
8 -50 10 -3 2 -24 6 -46 9 -22 4 -51 8 -64 11 -14 3 -59 8 -100 12 -98 10
-5395 10 -5480 0 -74 -8 -140 -18 -215 -31 -75 -14 -181 -41 -183 -48 -2 -4
-7 -6 -11 -4 -17 11 -374 -127 -401 -154 -3 -3 -30 -18 -60 -34 -202 -107
-443 -313 -590 -505 -32 -42 -66 -84 -74 -93 -9 -10 -16 -21 -16 -25 0 -3 -11
-21 -25 -39 -14 -18 -25 -36 -25 -40 0 -4 -6 -15 -14 -23 -7 -9 -31 -50 -52
-91 -38 -75 -52 -93 -65 -84 -8 5 -94 22 -154 30 -179 25 -553 24 -715 -1 -82
-12 -108 -17 -137 -25 -39 -10 -37 -12 -97 107 -26 50 -53 97 -61 103 -8 7
-15 16 -15 21 0 9 -48 87 -60 99 -3 3 -19 23 -35 45 -16 22 -39 51 -50 65 -27
33 -203 209 -238 238 -62 51 -192 144 -236 169 -25 15 -48 30 -51 33 -19 24
-390 187 -390 172 0 -4 -4 -2 -8 3 -4 6 -36 19 -72 29 -55 15 -100 26 -261 61
-9 2 -38 6 -65 9 -27 4 -65 10 -84 13 -39 8 -5444 16 -5451 8z m5301 -1639
c71 -10 210 -62 210 -78 0 -5 6 -8 13 -8 31 0 98 -89 112 -150 2 -8 8 -29 14
-47 17 -56 11 -192 -11 -253 -18 -50 -25 -72 -29 -85 0 -2 -28 -82 -61 -177
-32 -95 -60 -177 -62 -183 -4 -13 -10 -32 -25 -75 -7 -19 -14 -42 -16 -50 -2
-8 -23 -69 -45 -135 -23 -66 -43 -128 -45 -137 -2 -9 -9 -26 -15 -37 -6 -12
-8 -21 -5 -21 4 0 3 -6 -2 -12 -4 -7 -8 -15 -9 -18 0 -3 -3 -12 -7 -20 -7 -18
-68 -201 -72 -215 -1 -5 -7 -23 -13 -38 -7 -16 -12 -34 -12 -41 0 -6 -5 -17
-12 -24 -7 -7 -9 -12 -6 -12 3 0 -5 -30 -19 -67 -14 -38 -31 -88 -38 -113 -7
-25 -21 -65 -30 -90 -9 -25 -18 -52 -20 -60 -2 -8 -4 -16 -5 -17 -2 -2 -3 -6
-5 -10 -1 -5 -4 -15 -8 -23 -5 -14 -29 -88 -32 -100 -1 -3 -4 -12 -8 -20 -10
-26 -139 -409 -141 -422 -2 -7 -8 -26 -14 -41 -7 -16 -12 -32 -12 -37 0 -5 -5
-21 -12 -37 -6 -15 -12 -31 -12 -35 -1 -3 -4 -10 -8 -14 -5 -4 -8 -18 -8 -31
0 -13 -5 -23 -12 -23 -6 0 -9 -3 -6 -6 4 -3 -9 -51 -28 -107 -19 -56 -35 -104
-35 -107 -9 -41 -51 -144 -65 -161 -8 -8 -14 -23 -14 -32 0 -9 -3 -17 -8 -17
-4 0 -16 -17 -27 -37 -52 -97 -216 -276 -335 -364 -36 -27 -69 -52 -75 -56
-75 -58 -316 -174 -390 -189 -5 -1 -38 -9 -72 -18 -34 -9 -88 -19 -120 -23
-76 -9 -2651 -9 -2723 0 -30 4 -79 14 -107 21 -29 8 -53 12 -53 10 0 -3 -10 1
-22 8 -13 6 -27 13 -33 14 -5 1 -28 10 -50 19 -22 10 -46 19 -53 21 -8 1 -22
10 -31 18 -10 9 -21 16 -25 16 -14 0 -144 91 -199 140 -46 42 -128 133 -175
195 -63 83 -150 282 -166 377 -3 18 -8 44 -11 58 -3 14 -7 41 -10 60 -3 19 -7
46 -10 60 -3 14 -7 39 -9 55 -2 17 -8 55 -15 85 -6 30 -13 69 -15 85 -3 17
-10 59 -16 95 -7 36 -13 79 -15 95 -1 17 -5 44 -9 60 -3 17 -8 48 -12 70 -3
22 -9 56 -14 75 -6 20 -12 54 -14 75 -3 22 -7 51 -10 65 -4 23 -13 71 -21 125
-13 79 -36 214 -40 235 -6 27 -10 51 -20 120 -4 25 -9 52 -10 61 -7 35 -17 95
-21 124 -2 17 -8 53 -13 80 -14 74 -23 125 -45 260 -3 17 -7 41 -10 55 -2 14
-10 59 -16 100 -7 41 -14 84 -17 95 -2 11 -6 36 -9 55 -11 70 -23 137 -44 255
-13 76 -13 208 0 260 6 22 13 51 16 65 24 112 163 277 285 336 82 41 156 64
215 69 26 3 48 6 50 7 6 7 5105 1 5154 -6z m9955 0 c17 -4 49 -11 72 -17 163
-36 318 -162 388 -314 15 -33 31 -67 36 -76 27 -56 28 -227 3 -344 -3 -11 -7
-33 -9 -50 -5 -37 -16 -104 -21 -130 -9 -47 -36 -202 -40 -230 -5 -35 -12 -70
-14 -70 -1 0 -3 -16 -4 -35 -2 -19 -7 -51 -10 -70 -12 -60 -18 -94 -21 -115
-7 -49 -16 -103 -21 -125 -3 -14 -7 -41 -9 -60 -2 -19 -4 -35 -5 -35 -2 0 -5
-19 -16 -85 -4 -25 -9 -52 -10 -60 -4 -15 -15 -87 -20 -125 -1 -11 -3 -20 -4
-20 -1 0 -4 -13 -6 -30 -2 -16 -7 -46 -11 -65 -4 -19 -7 -39 -8 -45 -2 -14
-16 -103 -20 -125 -2 -9 -6 -34 -9 -54 -3 -20 -9 -52 -12 -72 -3 -20 -8 -46
-10 -58 -3 -11 -7 -37 -10 -56 -2 -19 -6 -46 -9 -60 -8 -38 -14 -71 -19 -110
-3 -19 -7 -44 -9 -55 -3 -11 -8 -42 -11 -70 -4 -27 -11 -68 -16 -90 -5 -22
-11 -58 -14 -80 -4 -23 -8 -52 -11 -65 -4 -23 -14 -80 -21 -125 -33 -222 -80
-347 -190 -501 -83 -116 -252 -267 -359 -319 -22 -11 -42 -22 -45 -26 -13 -14
-148 -65 -162 -61 -5 1 -8 -2 -8 -6 0 -5 -6 -9 -12 -10 -32 -3 -66 -9 -74 -15
-6 -3 -39 -9 -74 -13 -74 -8 -2673 -9 -2735 0 -99 13 -227 48 -300 81 -70 32
-182 89 -207 107 -14 10 -31 18 -36 18 -6 0 -12 3 -14 8 -1 4 -28 25 -58 46
-77 55 -204 173 -270 251 -44 53 -124 169 -145 210 -11 22 -22 42 -25 45 -5 4
-31 57 -35 70 -1 3 -7 19 -14 35 -7 17 -26 73 -43 125 -16 52 -32 102 -36 110
-3 8 -6 17 -7 20 -1 3 -4 12 -8 20 -7 19 -118 351 -122 365 -1 6 -5 19 -9 30
-24 63 -34 91 -36 100 -4 17 -11 39 -20 60 -4 11 -14 40 -21 65 -7 25 -16 50
-19 55 -4 6 -10 25 -14 43 -3 19 -12 48 -20 65 -7 18 -28 77 -45 132 -18 55
-36 109 -41 120 -8 19 -81 238 -86 260 -2 6 -10 30 -19 55 -9 25 -19 52 -21
60 -2 8 -36 112 -77 230 -40 118 -74 218 -75 222 -1 4 -5 13 -7 20 -10 28 -66
194 -70 208 -2 8 -22 69 -45 135 -42 124 -44 130 -59 205 -10 47 -8 171 4 230
10 52 43 111 82 148 19 17 38 32 43 32 5 0 15 6 22 13 31 30 129 63 217 74 25
3 47 6 48 7 6 5 5124 -3 5148 -8z"/>
</g>
</svg>
