<svg width="61" height="23" viewBox="0 0 61 23" fill="none" xmlns="http://www.w3.org/2000/svg">
<path d="M7.17167 5.11111C6.54945 5.11111 6.005 5.34111 5.64204 5.75C5.27907 6.13333 5.12352 6.69555 5.20129 7.30889L6.49759 14.95C6.705 16.6111 8.20871 17.8889 9.76427 17.8889H17.5421C19.2013 17.8889 21.068 16.4578 21.431 14.8733L24.1791 6.72111C24.2828 6.38889 24.2051 5.90333 24.0236 5.59667C23.7384 5.29 23.2976 5.11111 22.7273 5.11111H7.17167ZM17.5421 23H9.76427C5.56426 23 1.88276 19.78 1.36424 15.6911L0.0679438 8.05C-0.217242 5.87778 0.404982 3.83333 1.75313 2.35111C3.10129 0.868889 5.07166 0 7.17167 0H22.7273C24.8791 0 26.8236 0.894445 28.068 2.45333C28.3532 2.83667 28.6125 3.24556 28.8199 3.70556C29.9347 3.47556 31.0755 3.47556 32.1643 3.70556C32.3718 3.24556 32.631 2.83667 32.9421 2.45333C34.1606 0.894445 36.1051 0 38.2829 0H53.8385C55.9385 0 57.9089 0.868889 59.257 2.35111C60.5793 3.83333 61.2015 5.87778 60.9422 7.94778L59.62 15.7933C59.1274 19.78 55.42 23 51.2459 23H43.4681C39.4236 23 35.4829 19.9589 34.4977 16.1L32.1643 9.17445C31.1792 8.45889 29.8051 8.45889 28.8199 9.17445L26.4347 16.2789C25.5014 19.9844 21.5865 23 17.5421 23ZM38.2829 5.11111C37.7125 5.11111 37.2718 5.29 36.9866 5.59667C36.7792 5.90333 36.7273 6.38889 36.857 6.9L39.4755 14.6944C39.9421 16.4578 41.8088 17.8889 43.4681 17.8889H51.2459C52.7755 17.8889 54.3052 16.6111 54.4866 15.0522L55.8089 7.20667C55.8866 6.69555 55.7311 6.13333 55.3681 5.75C55.0052 5.34111 54.4607 5.11111 53.8385 5.11111H38.2829Z" fill="#009293"/>
</svg>
