<svg width="81" height="81" viewBox="0 0 81 81" fill="none" xmlns="http://www.w3.org/2000/svg">
<g clip-path="url(#clip0_45_390)">
<path d="M70.256 45.3212C69.9403 44.1711 61.3125 38.3551 51.5023 34.3147C49.5462 33.508 49.1422 33.9704 44.6505 31.724C40.349 29.1352 40.5232 28.5464 38.794 27.324C30.1291 21.2014 20.5969 17.0296 19.4573 17.3772C18.8893 17.553 17.4548 20.1607 17.6105 20.7345C17.7691 21.31 18.618 22.4223 18.182 24.4663C17.9006 25.7836 14.2607 33.2778 15.6302 36.8612C16.9857 40.4088 25.3841 44.5031 28.8151 44.6041C33.482 44.7435 37.5375 38.5815 39.5764 36.2352C40.6097 35.0472 42.0476 35.6941 42.3678 35.8703C42.688 36.0464 44.0043 36.9145 43.5541 38.4232C42.6662 41.4008 39.633 48.1252 42.2471 51.993C44.1708 54.8375 52.1238 59.738 55.8459 58.9835C59.6056 58.2216 63.9865 51.135 64.9485 50.1921C66.4406 48.731 67.8354 48.851 68.4063 48.6769C68.9764 48.5042 70.4117 45.895 70.256 45.3212Z" fill="#31373D"/>
<path d="M37.064 34.1108C35.932 35.8355 32.3932 40.8303 29.736 41.4579C26.7782 42.1559 19.5226 38.7725 18.5151 35.3677C17.986 33.5821 19.4388 28.3602 21.7409 24.3929C23.1217 22.0119 26.6019 23.2885 31.1797 25.8067C35.7001 28.2934 39.0855 31.031 37.064 34.1108ZM46.695 39.4087C45.8444 41.2883 43.5205 46.9513 44.413 49.5316C45.407 52.4034 52.1492 56.7201 55.5644 55.7482C57.3558 55.2391 60.9884 51.2163 63.1067 47.1479C64.3784 44.7069 61.4369 42.451 56.8591 39.9327C52.3401 37.4469 48.2139 36.0525 46.695 39.4087Z" fill="#55ACEE"/>
</g>
<defs>
<clipPath id="clip0_45_390">
<rect width="59" height="59" fill="white" transform="translate(28.4365) rotate(28.8148)"/>
</clipPath>
</defs>
</svg>
