<svg width="40" height="40" viewBox="0 0 40 40" fill="none" xmlns="http://www.w3.org/2000/svg">
<path d="M31.6667 11.6667H26.6667V10C26.6667 8.2319 25.9643 6.53621 24.7141 5.28596C23.4638 4.03572 21.7681 3.33334 20 3.33334C18.2319 3.33334 16.5362 4.03572 15.286 5.28596C14.0357 6.53621 13.3334 8.2319 13.3334 10V11.6667H8.33335C7.89133 11.6667 7.4674 11.8423 7.15484 12.1548C6.84228 12.4674 6.66669 12.8913 6.66669 13.3333V31.6667C6.66669 32.9928 7.19347 34.2645 8.13115 35.2022C9.06884 36.1399 10.3406 36.6667 11.6667 36.6667H28.3334C29.6594 36.6667 30.9312 36.1399 31.8689 35.2022C32.8066 34.2645 33.3334 32.9928 33.3334 31.6667V13.3333C33.3334 12.8913 33.1578 12.4674 32.8452 12.1548C32.5326 11.8423 32.1087 11.6667 31.6667 11.6667ZM16.6667 10C16.6667 9.11595 17.0179 8.26811 17.643 7.64299C18.2681 7.01787 19.116 6.66668 20 6.66668C20.8841 6.66668 21.7319 7.01787 22.357 7.64299C22.9822 8.26811 23.3334 9.11595 23.3334 10V11.6667H16.6667V10ZM30 31.6667C30 32.1087 29.8244 32.5326 29.5119 32.8452C29.1993 33.1577 28.7754 33.3333 28.3334 33.3333H11.6667C11.2247 33.3333 10.8007 33.1577 10.4882 32.8452C10.1756 32.5326 10 32.1087 10 31.6667V15H13.3334V16.6667C13.3334 17.1087 13.5089 17.5326 13.8215 17.8452C14.1341 18.1577 14.558 18.3333 15 18.3333C15.442 18.3333 15.866 18.1577 16.1785 17.8452C16.4911 17.5326 16.6667 17.1087 16.6667 16.6667V15H23.3334V16.6667C23.3334 17.1087 23.5089 17.5326 23.8215 17.8452C24.1341 18.1577 24.558 18.3333 25 18.3333C25.442 18.3333 25.866 18.1577 26.1785 17.8452C26.4911 17.5326 26.6667 17.1087 26.6667 16.6667V15H30V31.6667Z" fill="black"/>
</svg>
