<svg width="1248" height="71" viewBox="0 0 1248 71" fill="none" xmlns="http://www.w3.org/2000/svg">
<g opacity="0.5">
<mask id="path-1-outside-1_45_126" maskUnits="userSpaceOnUse" x="-1" y="-1" width="1250" height="73" fill="black">
<rect fill="white" x="-1" y="-1" width="1250" height="73"/>
<path d="M0.912 69V1.512H13.968V69H0.912ZM10.512 69V57.48H47.856V69H10.512ZM10.512 40.104V28.968H44.496V40.104H10.512ZM10.512 13.032V1.512H47.376V13.032H10.512ZM78.9495 69L52.3575 1.512H66.4695L87.0135 56.136H81.5415L102.278 1.512H116.198L89.3175 69H78.9495ZM125.037 69V1.512H138.093V69H125.037ZM134.637 69V57.48H171.981V69H134.637ZM134.637 40.104V28.968H168.621V40.104H134.637ZM134.637 13.032V1.512H171.501V13.032H134.637ZM192.387 40.776V30.6H208.035C211.235 30.6 213.699 29.8 215.427 28.2C217.219 26.536 218.115 24.264 218.115 21.384C218.115 18.76 217.219 16.584 215.427 14.856C213.699 13.064 211.235 12.168 208.035 12.168H192.387V1.512H209.187C213.539 1.512 217.347 2.376 220.611 4.10399C223.939 5.768 226.499 8.072 228.291 11.016C230.147 13.96 231.075 17.352 231.075 21.192C231.075 25.16 230.147 28.616 228.291 31.56C226.499 34.44 223.939 36.712 220.611 38.376C217.283 39.976 213.411 40.776 208.995 40.776H192.387ZM182.787 69V1.512H195.843V69H182.787ZM219.651 69L197.379 39.816L209.379 36.072L235.491 69H219.651ZM260.246 42.984L234.134 1.512H249.206L269.462 34.728H260.822L281.078 1.512H295.958L269.558 42.984H260.246ZM258.518 69V35.976H271.67V69H258.518ZM320.506 69V1.512H329.722L357.082 45.288H351.802L379.066 1.512H388.282V69H375.322V23.88L377.818 24.648L358.81 55.176H349.978L330.97 24.648L333.562 23.88V69H320.506ZM433.652 70.056C428.724 70.056 424.116 69.16 419.828 67.368C415.604 65.576 411.892 63.112 408.692 59.976C405.556 56.776 403.092 53.064 401.3 48.84C399.508 44.552 398.612 39.976 398.612 35.112C398.612 30.248 399.476 25.736 401.204 21.576C402.996 17.352 405.46 13.672 408.596 10.536C411.796 7.336 415.508 4.872 419.732 3.144C423.956 1.352 428.532 0.455996 433.46 0.455996C438.452 0.455996 443.06 1.352 447.284 3.144C451.508 4.872 455.188 7.336 458.324 10.536C461.524 13.672 464.02 17.352 465.812 21.576C467.604 25.8 468.5 30.344 468.5 35.208C468.5 40.072 467.604 44.616 465.812 48.84C464.02 53.064 461.524 56.776 458.324 59.976C455.188 63.112 451.508 65.576 447.284 67.368C443.124 69.16 438.58 70.056 433.652 70.056ZM433.46 57.864C437.812 57.864 441.588 56.904 444.788 54.984C447.988 53.064 450.484 50.408 452.276 47.016C454.132 43.624 455.06 39.656 455.06 35.112C455.06 31.784 454.548 28.744 453.524 25.992C452.5 23.24 451.028 20.872 449.108 18.888C447.188 16.84 444.916 15.272 442.292 14.184C439.668 13.096 436.724 12.552 433.46 12.552C429.236 12.552 425.492 13.512 422.228 15.432C419.028 17.288 416.5 19.912 414.644 23.304C412.852 26.696 411.956 30.632 411.956 35.112C411.956 38.504 412.468 41.608 413.492 44.424C414.58 47.24 416.052 49.64 417.908 51.624C419.828 53.608 422.1 55.144 424.724 56.232C427.412 57.32 430.324 57.864 433.46 57.864ZM511.277 70.056C506.349 70.056 501.741 69.16 497.453 67.368C493.229 65.576 489.517 63.112 486.317 59.976C483.181 56.776 480.717 53.064 478.925 48.84C477.133 44.552 476.237 39.976 476.237 35.112C476.237 30.248 477.101 25.736 478.829 21.576C480.621 17.352 483.085 13.672 486.221 10.536C489.421 7.336 493.133 4.872 497.357 3.144C501.581 1.352 506.157 0.455996 511.085 0.455996C516.077 0.455996 520.685 1.352 524.909 3.144C529.133 4.872 532.813 7.336 535.949 10.536C539.149 13.672 541.645 17.352 543.437 21.576C545.229 25.8 546.125 30.344 546.125 35.208C546.125 40.072 545.229 44.616 543.437 48.84C541.645 53.064 539.149 56.776 535.949 59.976C532.813 63.112 529.133 65.576 524.909 67.368C520.749 69.16 516.205 70.056 511.277 70.056ZM511.085 57.864C515.437 57.864 519.213 56.904 522.413 54.984C525.613 53.064 528.109 50.408 529.901 47.016C531.757 43.624 532.685 39.656 532.685 35.112C532.685 31.784 532.173 28.744 531.149 25.992C530.125 23.24 528.653 20.872 526.733 18.888C524.813 16.84 522.541 15.272 519.917 14.184C517.293 13.096 514.349 12.552 511.085 12.552C506.861 12.552 503.117 13.512 499.853 15.432C496.653 17.288 494.125 19.912 492.269 23.304C490.477 26.696 489.581 30.632 489.581 35.112C489.581 38.504 490.093 41.608 491.117 44.424C492.205 47.24 493.677 49.64 495.533 51.624C497.453 53.608 499.725 55.144 502.349 56.232C505.037 57.32 507.949 57.864 511.085 57.864ZM565.403 69V57.384H582.587C586.939 57.384 590.747 56.488 594.011 54.696C597.275 52.84 599.803 50.248 601.595 46.92C603.451 43.592 604.379 39.656 604.379 35.112C604.379 30.696 603.451 26.856 601.595 23.592C599.739 20.264 597.179 17.704 593.915 15.912C590.651 14.056 586.875 13.128 582.587 13.128H565.115V1.512H582.779C587.771 1.512 592.379 2.344 596.603 4.008C600.891 5.672 604.603 8.04 607.739 11.112C610.939 14.12 613.403 17.672 615.131 21.768C616.923 25.864 617.819 30.344 617.819 35.208C617.819 40.072 616.923 44.584 615.131 48.744C613.403 52.84 610.971 56.424 607.835 59.496C604.699 62.504 600.987 64.84 596.699 66.504C592.475 68.168 587.899 69 582.971 69H565.403ZM556.475 69V1.512H569.531V69H556.475ZM646.943 69V1.512H659.999V69H646.943ZM689.279 69V1.512H702.335V69H689.279ZM655.199 39.912V28.392H692.927V39.912H655.199ZM711.139 69L738.307 1.512H748.963L776.035 69H762.115L741.187 13.608H745.987L724.771 69H711.139ZM725.539 56.424V45.48H761.827V56.424H725.539ZM802.184 69.96C796.744 69.96 792.072 69.032 788.168 67.176C784.328 65.32 780.84 62.536 777.704 58.824L786.344 50.184C788.328 52.808 790.632 54.856 793.256 56.328C795.88 57.736 799.08 58.44 802.856 58.44C806.248 58.44 808.936 57.768 810.92 56.424C812.968 55.08 813.992 53.224 813.992 50.856C813.992 48.808 813.416 47.144 812.264 45.864C811.112 44.584 809.576 43.496 807.656 42.6C805.8 41.704 803.72 40.904 801.416 40.2C799.176 39.432 796.904 38.568 794.6 37.608C792.36 36.648 790.28 35.464 788.359 34.056C786.504 32.584 785 30.728 783.848 28.488C782.696 26.184 782.12 23.304 782.12 19.848C782.12 15.752 783.112 12.264 785.096 9.384C787.08 6.504 789.8 4.296 793.256 2.75999C796.712 1.224 800.616 0.455996 804.968 0.455996C809.576 0.455996 813.736 1.32 817.448 3.048C821.16 4.776 824.2 7.016 826.568 9.768L817.928 18.408C815.944 16.232 813.896 14.632 811.784 13.608C809.736 12.584 807.4 12.072 804.776 12.072C801.768 12.072 799.4 12.648 797.672 13.8C795.944 14.952 795.08 16.616 795.08 18.792C795.08 20.648 795.656 22.152 796.808 23.304C797.96 24.456 799.464 25.448 801.32 26.28C803.24 27.112 805.32 27.912 807.56 28.68C809.864 29.448 812.136 30.312 814.376 31.272C816.68 32.232 818.76 33.48 820.616 35.016C822.536 36.552 824.072 38.536 825.224 40.968C826.376 43.336 826.952 46.28 826.952 49.8C826.952 56.072 824.744 61 820.328 64.584C815.912 68.168 809.864 69.96 802.184 69.96ZM848.295 69L875.463 1.512H886.119L913.191 69H899.271L878.343 13.608H883.143L861.927 69H848.295ZM862.695 56.424V45.48H898.983V56.424H862.695ZM937.943 69V1.512H950.999V69H937.943ZM947.543 41.352V29.736H981.527V41.352H947.543ZM947.543 13.032V1.512H983.159V13.032H947.543ZM1003.04 40.776V30.6H1018.69C1021.89 30.6 1024.36 29.8 1026.08 28.2C1027.88 26.536 1028.77 24.264 1028.77 21.384C1028.77 18.76 1027.88 16.584 1026.08 14.856C1024.36 13.064 1021.89 12.168 1018.69 12.168H1003.04V1.512H1019.84C1024.2 1.512 1028 2.376 1031.27 4.10399C1034.6 5.768 1037.16 8.072 1038.95 11.016C1040.8 13.96 1041.73 17.352 1041.73 21.192C1041.73 25.16 1040.8 28.616 1038.95 31.56C1037.16 34.44 1034.6 36.712 1031.27 38.376C1027.94 39.976 1024.07 40.776 1019.65 40.776H1003.04ZM993.443 69V1.512H1006.5V69H993.443ZM1030.31 69L1008.04 39.816L1020.04 36.072L1046.15 69H1030.31ZM1046.39 69L1073.56 1.512H1084.21L1111.28 69H1097.36L1076.44 13.608H1081.24L1060.02 69H1046.39ZM1060.79 56.424V45.48H1097.08V56.424H1060.79ZM1119.26 69V1.512H1128.47L1155.83 45.288H1150.55L1177.82 1.512H1187.03V69H1174.07V23.88L1176.57 24.648L1157.56 55.176H1148.73L1129.72 24.648L1132.31 23.88V69H1119.26ZM1200.82 69V1.512H1213.87V69H1200.82ZM1210.42 69V57.48H1247.76V69H1210.42ZM1210.42 40.104V28.968H1244.4V40.104H1210.42ZM1210.42 13.032V1.512H1247.28V13.032H1210.42Z"/>
</mask>
<path d="M0.912001 69H-0.0879993V70H0.912001V69ZM0.912001 1.512V0.511999H-0.0879993V1.512H0.912001ZM13.968 1.512H14.968V0.511999H13.968V1.512ZM13.968 69V70H14.968V69H13.968ZM10.512 69H9.512V70H10.512V69ZM10.512 57.48V56.48H9.512V57.48H10.512ZM47.856 57.48H48.856V56.48H47.856V57.48ZM47.856 69V70H48.856V69H47.856ZM10.512 40.104H9.512V41.104H10.512V40.104ZM10.512 28.968V27.968H9.512V28.968H10.512ZM44.496 28.968H45.496V27.968H44.496V28.968ZM44.496 40.104V41.104H45.496V40.104H44.496ZM10.512 13.032H9.512V14.032H10.512V13.032ZM10.512 1.512V0.511999H9.512V1.512H10.512ZM47.376 1.512H48.376V0.511999H47.376V1.512ZM47.376 13.032V14.032H48.376V13.032H47.376ZM1.912 69V1.512H-0.0879993V69H1.912ZM0.912001 2.512H13.968V0.511999H0.912001V2.512ZM12.968 1.512V69H14.968V1.512H12.968ZM13.968 68H0.912001V70H13.968V68ZM11.512 69V57.48H9.512V69H11.512ZM10.512 58.48H47.856V56.48H10.512V58.48ZM46.856 57.48V69H48.856V57.48H46.856ZM47.856 68H10.512V70H47.856V68ZM11.512 40.104V28.968H9.512V40.104H11.512ZM10.512 29.968H44.496V27.968H10.512V29.968ZM43.496 28.968V40.104H45.496V28.968H43.496ZM44.496 39.104H10.512V41.104H44.496V39.104ZM11.512 13.032V1.512H9.512V13.032H11.512ZM10.512 2.512H47.376V0.511999H10.512V2.512ZM46.376 1.512V13.032H48.376V1.512H46.376ZM47.376 12.032H10.512V14.032H47.376V12.032ZM78.9495 69L78.0191 69.3666L78.2687 70H78.9495V69ZM52.3575 1.512V0.511999H50.8886L51.4271 1.87859L52.3575 1.512ZM66.4695 1.512L67.4055 1.15998L67.1618 0.511999H66.4695V1.512ZM87.0135 56.136V57.136H88.458L87.9495 55.784L87.0135 56.136ZM81.5415 56.136L80.6066 55.7811L80.0923 57.136H81.5415V56.136ZM102.278 1.512V0.511999H101.587L101.343 1.1571L102.278 1.512ZM116.198 1.512L117.127 1.88202L117.672 0.511999H116.198V1.512ZM89.3175 69V70H89.9956L90.2465 69.37L89.3175 69ZM79.8799 68.6334L53.2879 1.1454L51.4271 1.87859L78.0191 69.3666L79.8799 68.6334ZM52.3575 2.512H66.4695V0.511999H52.3575V2.512ZM65.5335 1.86402L86.0775 56.488L87.9495 55.784L67.4055 1.15998L65.5335 1.86402ZM87.0135 55.136H81.5415V57.136H87.0135V55.136ZM82.4764 56.4909L103.212 1.8669L101.343 1.1571L80.6066 55.7811L82.4764 56.4909ZM102.278 2.512H116.198V0.511999H102.278V2.512ZM115.268 1.14198L88.3885 68.63L90.2465 69.37L117.127 1.88202L115.268 1.14198ZM89.3175 68H78.9495V70H89.3175V68ZM125.037 69H124.037V70H125.037V69ZM125.037 1.512V0.511999H124.037V1.512H125.037ZM138.093 1.512H139.093V0.511999H138.093V1.512ZM138.093 69V70H139.093V69H138.093ZM134.637 69H133.637V70H134.637V69ZM134.637 57.48V56.48H133.637V57.48H134.637ZM171.981 57.48H172.981V56.48H171.981V57.48ZM171.981 69V70H172.981V69H171.981ZM134.637 40.104H133.637V41.104H134.637V40.104ZM134.637 28.968V27.968H133.637V28.968H134.637ZM168.621 28.968H169.621V27.968H168.621V28.968ZM168.621 40.104V41.104H169.621V40.104H168.621ZM134.637 13.032H133.637V14.032H134.637V13.032ZM134.637 1.512V0.511999H133.637V1.512H134.637ZM171.501 1.512H172.501V0.511999H171.501V1.512ZM171.501 13.032V14.032H172.501V13.032H171.501ZM126.037 69V1.512H124.037V69H126.037ZM125.037 2.512H138.093V0.511999H125.037V2.512ZM137.093 1.512V69H139.093V1.512H137.093ZM138.093 68H125.037V70H138.093V68ZM135.637 69V57.48H133.637V69H135.637ZM134.637 58.48H171.981V56.48H134.637V58.48ZM170.981 57.48V69H172.981V57.48H170.981ZM171.981 68H134.637V70H171.981V68ZM135.637 40.104V28.968H133.637V40.104H135.637ZM134.637 29.968H168.621V27.968H134.637V29.968ZM167.621 28.968V40.104H169.621V28.968H167.621ZM168.621 39.104H134.637V41.104H168.621V39.104ZM135.637 13.032V1.512H133.637V13.032H135.637ZM134.637 2.512H171.501V0.511999H134.637V2.512ZM170.501 1.512V13.032H172.501V1.512H170.501ZM171.501 12.032H134.637V14.032H171.501V12.032ZM192.387 40.776H191.387V41.776H192.387V40.776ZM192.387 30.6V29.6H191.387V30.6H192.387ZM215.427 28.2L216.106 28.9338L216.107 28.9328L215.427 28.2ZM215.427 14.856L214.707 15.5501L214.72 15.5632L214.733 15.5758L215.427 14.856ZM192.387 12.168H191.387V13.168H192.387V12.168ZM192.387 1.512V0.511999H191.387V1.512H192.387ZM220.611 4.10399L220.143 4.98778L220.153 4.99322L220.164 4.99842L220.611 4.10399ZM228.291 11.016L227.437 11.5359L227.441 11.5427L227.445 11.5493L228.291 11.016ZM228.291 31.56L227.445 31.0267L227.442 31.0317L228.291 31.56ZM220.611 38.376L221.044 39.2773L221.051 39.2739L221.058 39.2704L220.611 38.376ZM182.787 69H181.787V70H182.787V69ZM182.787 1.512V0.511999H181.787V1.512H182.787ZM195.843 1.512H196.843V0.511999H195.843V1.512ZM195.843 69V70H196.843V69H195.843ZM219.651 69L218.856 69.6067L219.156 70H219.651V69ZM197.379 39.816L197.081 38.8614L195.717 39.2869L196.584 40.4227L197.379 39.816ZM209.379 36.072L210.163 35.4507L209.736 34.913L209.081 35.1174L209.379 36.072ZM235.491 69V70H237.56L236.275 68.3787L235.491 69ZM193.387 40.776V30.6H191.387V40.776H193.387ZM192.387 31.6H208.035V29.6H192.387V31.6ZM208.035 31.6C211.395 31.6 214.136 30.7584 216.106 28.9338L214.748 27.4662C213.262 28.8416 211.075 29.6 208.035 29.6V31.6ZM216.107 28.9328C218.14 27.0458 219.115 24.4882 219.115 21.384H217.115C217.115 24.0398 216.298 26.0262 214.747 27.4672L216.107 28.9328ZM219.115 21.384C219.115 18.5049 218.12 16.0637 216.121 14.1362L214.733 15.5758C216.318 17.1043 217.115 19.0151 217.115 21.384H219.115ZM216.147 14.1619C214.18 12.1226 211.425 11.168 208.035 11.168V13.168C211.045 13.168 213.218 14.0054 214.707 15.5501L216.147 14.1619ZM208.035 11.168H192.387V13.168H208.035V11.168ZM193.387 12.168V1.512H191.387V12.168H193.387ZM192.387 2.512H209.187V0.511999H192.387V2.512ZM209.187 2.512C213.405 2.512 217.047 3.34864 220.143 4.98778L221.079 3.22021C217.647 1.40336 213.673 0.511999 209.187 0.511999V2.512ZM220.164 4.99842C223.338 6.5853 225.75 8.76535 227.437 11.5359L229.145 10.4961C227.248 7.37864 224.54 4.95069 221.058 3.20957L220.164 4.99842ZM227.445 11.5493C229.19 14.3174 230.075 17.5206 230.075 21.192H232.075C232.075 17.1834 231.104 13.6026 229.137 10.4827L227.445 11.5493ZM230.075 21.192C230.075 24.9984 229.187 28.2638 227.445 31.0267L229.137 32.0933C231.107 28.9682 232.075 25.3216 232.075 21.192H230.075ZM227.442 31.0317C225.757 33.7399 223.343 35.8919 220.164 37.4816L221.058 39.2704C224.535 37.5321 227.241 35.1401 229.14 32.0883L227.442 31.0317ZM220.178 37.4747C217.009 38.9982 213.29 39.776 208.995 39.776V41.776C213.532 41.776 217.557 40.9538 221.044 39.2773L220.178 37.4747ZM208.995 39.776H192.387V41.776H208.995V39.776ZM183.787 69V1.512H181.787V69H183.787ZM182.787 2.512H195.843V0.511999H182.787V2.512ZM194.843 1.512V69H196.843V1.512H194.843ZM195.843 68H182.787V70H195.843V68ZM220.446 68.3933L198.174 39.2093L196.584 40.4227L218.856 69.6067L220.446 68.3933ZM197.677 40.7706L209.677 37.0266L209.081 35.1174L197.081 38.8614L197.677 40.7706ZM208.595 36.6933L234.707 69.6213L236.275 68.3787L210.163 35.4507L208.595 36.6933ZM235.491 68H219.651V70H235.491V68ZM260.246 42.984L259.4 43.5168L259.694 43.984H260.246V42.984ZM234.134 1.512V0.511999H232.323L233.288 2.04481L234.134 1.512ZM249.206 1.512L250.06 0.991348L249.768 0.511999H249.206V1.512ZM269.462 34.728V35.728H271.243L270.316 34.2073L269.462 34.728ZM260.822 34.728L259.968 34.2073L259.041 35.728H260.822V34.728ZM281.078 1.512V0.511999H280.517L280.224 0.991348L281.078 1.512ZM295.958 1.512L296.802 2.049L297.78 0.511999H295.958V1.512ZM269.558 42.984V43.984H270.107L270.402 43.521L269.558 42.984ZM258.518 69H257.518V70H258.518V69ZM258.518 35.976V34.976H257.518V35.976H258.518ZM271.67 35.976H272.67V34.976H271.67V35.976ZM271.67 69V70H272.67V69H271.67ZM261.092 42.4512L234.98 0.979185L233.288 2.04481L259.4 43.5168L261.092 42.4512ZM234.134 2.512H249.206V0.511999H234.134V2.512ZM248.352 2.03265L268.608 35.2486L270.316 34.2073L250.06 0.991348L248.352 2.03265ZM269.462 33.728H260.822V35.728H269.462V33.728ZM261.676 35.2486L281.932 2.03265L280.224 0.991348L259.968 34.2073L261.676 35.2486ZM281.078 2.512H295.958V0.511999H281.078V2.512ZM295.115 0.974997L268.715 42.447L270.402 43.521L296.802 2.049L295.115 0.974997ZM269.558 41.984H260.246V43.984H269.558V41.984ZM259.518 69V35.976H257.518V69H259.518ZM258.518 36.976H271.67V34.976H258.518V36.976ZM270.67 35.976V69H272.67V35.976H270.67ZM271.67 68H258.518V70H271.67V68ZM320.506 69H319.506V70H320.506V69ZM320.506 1.512V0.511999H319.506V1.512H320.506ZM329.722 1.512L330.57 0.982L330.276 0.511999H329.722V1.512ZM357.082 45.288V46.288H358.886L357.93 44.758L357.082 45.288ZM351.802 45.288L350.953 44.7593L350.001 46.288H351.802V45.288ZM379.066 1.512V0.511999H378.51L378.217 0.983339L379.066 1.512ZM388.282 1.512H389.282V0.511999H388.282V1.512ZM388.282 69V70H389.282V69H388.282ZM375.322 69H374.322V70H375.322V69ZM375.322 23.88L375.616 22.9242L374.322 22.526V23.88H375.322ZM377.818 24.648L378.667 25.1766L379.353 24.0741L378.112 23.6922L377.818 24.648ZM358.81 55.176V56.176H359.365L359.659 55.7046L358.81 55.176ZM349.978 55.176L349.129 55.7046L349.422 56.176H349.978V55.176ZM330.97 24.648L330.686 23.6892L329.427 24.0621L330.121 25.1766L330.97 24.648ZM333.562 23.88H334.562V22.5407L333.278 22.9212L333.562 23.88ZM333.562 69V70H334.562V69H333.562ZM321.506 69V1.512H319.506V69H321.506ZM320.506 2.512H329.722V0.511999H320.506V2.512ZM328.874 2.042L356.234 45.818L357.93 44.758L330.57 0.982L328.874 2.042ZM357.082 44.288H351.802V46.288H357.082V44.288ZM352.651 45.8167L379.915 2.04066L378.217 0.983339L350.953 44.7593L352.651 45.8167ZM379.066 2.512H388.282V0.511999H379.066V2.512ZM387.282 1.512V69H389.282V1.512H387.282ZM388.282 68H375.322V70H388.282V68ZM376.322 69V23.88H374.322V69H376.322ZM375.028 24.8358L377.524 25.6038L378.112 23.6922L375.616 22.9242L375.028 24.8358ZM376.969 24.1194L357.961 54.6474L359.659 55.7046L378.667 25.1766L376.969 24.1194ZM358.81 54.176H349.978V56.176H358.81V54.176ZM350.827 54.6474L331.819 24.1194L330.121 25.1766L349.129 55.7046L350.827 54.6474ZM331.254 25.6068L333.846 24.8388L333.278 22.9212L330.686 23.6892L331.254 25.6068ZM332.562 23.88V69H334.562V23.88H332.562ZM333.562 68H320.506V70H333.562V68ZM419.828 67.368L419.438 68.2886L419.443 68.2907L419.828 67.368ZM408.692 59.976L407.978 60.6759L407.985 60.6831L407.992 60.6902L408.692 59.976ZM401.3 48.84L400.378 49.2256L400.38 49.2306L401.3 48.84ZM401.204 21.576L400.284 21.1854L400.281 21.1924L401.204 21.576ZM408.596 10.536L407.889 9.82889L408.596 10.536ZM419.732 3.144L420.111 4.06962L420.123 4.06458L419.732 3.144ZM447.284 3.144L446.894 4.06465L446.906 4.06954L447.284 3.144ZM458.324 10.536L457.61 11.2359L457.617 11.2431L457.624 11.2502L458.324 10.536ZM465.812 21.576L466.733 21.1854L465.812 21.576ZM465.812 48.84L466.733 49.2306L465.812 48.84ZM458.324 59.976L459.031 60.6831L458.324 59.976ZM447.284 67.368L446.894 66.4474L446.889 66.4496L447.284 67.368ZM444.788 54.984L444.274 54.1265L444.788 54.984ZM452.276 47.016L451.399 46.536L451.395 46.5424L451.392 46.5489L452.276 47.016ZM453.524 25.992L454.461 25.6433L453.524 25.992ZM449.108 18.888L448.379 19.5719L448.384 19.5777L448.39 19.5834L449.108 18.888ZM442.292 14.184L442.675 13.2603L442.292 14.184ZM422.228 15.432L422.73 16.297L422.735 16.2939L422.228 15.432ZM414.644 23.304L413.767 22.824L413.763 22.8304L413.76 22.8369L414.644 23.304ZM413.492 44.424L412.552 44.7657L412.556 44.7751L412.559 44.7844L413.492 44.424ZM417.908 51.624L417.178 52.3072L417.184 52.3133L417.19 52.3194L417.908 51.624ZM424.724 56.232L424.341 57.1558L424.349 57.1589L424.724 56.232ZM433.652 69.056C428.849 69.056 424.372 68.1833 420.214 66.4453L419.443 68.2907C423.86 70.1367 428.6 71.056 433.652 71.056V69.056ZM420.219 66.4474C416.107 64.7031 412.501 62.3081 409.392 59.2618L407.992 60.6902C411.284 63.9159 415.101 66.4489 419.438 68.2886L420.219 66.4474ZM409.406 59.2761C406.36 56.1676 403.965 52.5612 402.221 48.4494L400.38 49.2306C402.219 53.5668 404.752 57.3844 407.978 60.6759L409.406 59.2761ZM402.223 48.4544C400.484 44.2942 399.612 39.8499 399.612 35.112H397.612C397.612 40.1021 398.532 44.8098 400.378 49.2256L402.223 48.4544ZM399.612 35.112C399.612 30.3691 400.454 25.9886 402.128 21.9596L400.281 21.1924C398.498 25.4834 397.612 30.1269 397.612 35.112H399.612ZM402.125 21.9665C403.868 17.8566 406.261 14.2851 409.303 11.2431L407.889 9.82889C404.659 13.0589 402.124 16.8474 400.284 21.1854L402.125 21.9665ZM409.303 11.2431C412.409 8.13782 416.009 5.7477 420.111 4.06954L419.354 2.21845C415.008 3.99629 411.184 6.53418 407.889 9.82889L409.303 11.2431ZM420.123 4.06458C424.214 2.32877 428.656 1.456 433.46 1.456V-0.544004C428.408 -0.544004 423.698 0.375217 419.342 2.22341L420.123 4.06458ZM433.46 1.456C438.33 1.456 442.804 2.32944 446.894 4.06458L447.675 2.22341C443.317 0.374548 438.575 -0.544004 433.46 -0.544004V1.456ZM446.906 4.06954C451.006 5.74696 454.571 8.13504 457.61 11.2359L459.038 9.83607C455.805 6.53695 452.011 3.99703 447.663 2.21845L446.906 4.06954ZM457.624 11.2502C460.728 14.2917 463.15 17.8609 464.892 21.9665L466.733 21.1854C464.891 16.8431 462.321 13.0523 459.024 9.82178L457.624 11.2502ZM464.892 21.9665C466.628 26.0597 467.5 30.47 467.5 35.208H469.5C469.5 30.218 468.58 25.5403 466.733 21.1854L464.892 21.9665ZM467.5 35.208C467.5 39.946 466.628 44.3563 464.892 48.4494L466.733 49.2306C468.58 44.8757 469.5 40.198 469.5 35.208H467.5ZM464.892 48.4494C463.149 52.5569 460.725 56.161 457.617 59.2689L459.031 60.6831C462.323 57.391 464.891 53.5711 466.733 49.2306L464.892 48.4494ZM457.617 59.2689C454.575 62.3109 451.004 64.7038 446.894 66.4474L447.675 68.2886C452.013 66.4482 455.801 63.9131 459.031 60.6831L457.617 59.2689ZM446.889 66.4496C442.864 68.1832 438.456 69.056 433.652 69.056V71.056C438.704 71.056 443.384 70.1368 447.68 68.2864L446.889 66.4496ZM433.46 58.864C437.963 58.864 441.923 57.8693 445.303 55.8415L444.274 54.1265C441.253 55.9387 437.662 56.864 433.46 56.864V58.864ZM445.303 55.8415C448.664 53.8248 451.286 51.0318 453.16 47.4831L451.392 46.5489C449.683 49.7842 447.313 52.3032 444.274 54.1265L445.303 55.8415ZM453.154 47.496C455.103 43.933 456.06 39.7943 456.06 35.112H454.06C454.06 39.5177 453.161 43.315 451.399 46.536L453.154 47.496ZM456.06 35.112C456.06 31.6807 455.532 28.5207 454.461 25.6433L452.587 26.3407C453.564 28.9673 454.06 31.8873 454.06 35.112H456.06ZM454.461 25.6433C453.392 22.7702 451.849 20.282 449.827 18.1926L448.39 19.5834C450.208 21.462 451.608 23.7098 452.587 26.3407L454.461 25.6433ZM449.838 18.2041C447.819 16.0512 445.429 14.402 442.675 13.2603L441.909 15.1077C444.404 16.142 446.557 17.6288 448.379 19.5719L449.838 18.2041ZM442.675 13.2603C439.913 12.115 436.836 11.552 433.46 11.552V13.552C436.612 13.552 439.423 14.077 441.909 15.1077L442.675 13.2603ZM433.46 11.552C429.079 11.552 425.156 12.5495 421.721 14.5701L422.735 16.2939C425.828 14.4745 429.393 13.552 433.46 13.552V11.552ZM421.727 14.567C418.361 16.5188 415.707 19.2793 413.767 22.824L415.522 23.784C417.294 20.5447 419.695 18.0572 422.73 16.297L421.727 14.567ZM413.76 22.8369C411.88 26.3952 410.956 30.4966 410.956 35.112H412.956C412.956 30.7674 413.824 26.9968 415.528 23.7711L413.76 22.8369ZM410.956 35.112C410.956 38.6053 411.484 41.8268 412.552 44.7657L414.432 44.0823C413.453 41.3892 412.956 38.4027 412.956 35.112H410.956ZM412.559 44.7844C413.689 47.7067 415.225 50.2197 417.178 52.3072L418.639 50.9408C416.879 49.0603 415.472 46.7733 414.425 44.0636L412.559 44.7844ZM417.19 52.3194C419.207 54.4045 421.595 56.0169 424.341 57.1557L425.107 55.3083C422.606 54.2711 420.449 52.8115 418.627 50.9286L417.19 52.3194ZM424.349 57.1589C427.166 58.299 430.206 58.864 433.46 58.864V56.864C430.442 56.864 427.659 56.341 425.099 55.3051L424.349 57.1589ZM497.453 67.368L497.063 68.2886L497.068 68.2907L497.453 67.368ZM486.317 59.976L485.603 60.6759L485.61 60.6831L485.617 60.6902L486.317 59.976ZM478.925 48.84L478.003 49.2256L478.005 49.2306L478.925 48.84ZM478.829 21.576L477.909 21.1854L477.906 21.1924L478.829 21.576ZM486.221 10.536L485.514 9.82889L486.221 10.536ZM497.357 3.144L497.736 4.06962L497.748 4.06458L497.357 3.144ZM524.909 3.144L524.519 4.06465L524.531 4.06954L524.909 3.144ZM535.949 10.536L535.235 11.2359L535.242 11.2431L535.249 11.2502L535.949 10.536ZM543.437 21.576L544.358 21.1854L543.437 21.576ZM543.437 48.84L544.358 49.2306L543.437 48.84ZM535.949 59.976L536.656 60.6831L535.949 59.976ZM524.909 67.368L524.519 66.4474L524.514 66.4496L524.909 67.368ZM522.413 54.984L521.899 54.1265L522.413 54.984ZM529.901 47.016L529.024 46.536L529.021 46.5424L529.017 46.5489L529.901 47.016ZM531.149 25.992L532.086 25.6433L531.149 25.992ZM526.733 18.888L526.004 19.5719L526.009 19.5777L526.015 19.5834L526.733 18.888ZM519.917 14.184L520.3 13.2603L519.917 14.184ZM499.853 15.432L500.355 16.297L500.36 16.2939L499.853 15.432ZM492.269 23.304L491.392 22.824L491.388 22.8304L491.385 22.8369L492.269 23.304ZM491.117 44.424L490.177 44.7657L490.181 44.7751L490.184 44.7844L491.117 44.424ZM495.533 51.624L494.803 52.3072L494.809 52.3133L494.815 52.3194L495.533 51.624ZM502.349 56.232L501.966 57.1558L501.974 57.1589L502.349 56.232ZM511.277 69.056C506.474 69.056 501.997 68.1833 497.839 66.4453L497.068 68.2907C501.485 70.1367 506.225 71.056 511.277 71.056V69.056ZM497.844 66.4474C493.732 64.7031 490.126 62.3081 487.017 59.2618L485.617 60.6902C488.909 63.9159 492.726 66.4489 497.063 68.2886L497.844 66.4474ZM487.031 59.2761C483.985 56.1676 481.59 52.5612 479.846 48.4494L478.005 49.2306C479.844 53.5668 482.377 57.3844 485.603 60.6759L487.031 59.2761ZM479.848 48.4544C478.109 44.2942 477.237 39.8499 477.237 35.112H475.237C475.237 40.1021 476.157 44.8098 478.003 49.2256L479.848 48.4544ZM477.237 35.112C477.237 30.3691 478.079 25.9886 479.753 21.9596L477.906 21.1924C476.123 25.4834 475.237 30.1269 475.237 35.112H477.237ZM479.75 21.9665C481.493 17.8566 483.886 14.2851 486.928 11.2431L485.514 9.82889C482.284 13.0589 479.749 16.8474 477.909 21.1854L479.75 21.9665ZM486.928 11.2431C490.034 8.13782 493.634 5.7477 497.736 4.06954L496.979 2.21845C492.633 3.99629 488.809 6.53418 485.514 9.82889L486.928 11.2431ZM497.748 4.06458C501.839 2.32877 506.281 1.456 511.085 1.456V-0.544004C506.033 -0.544004 501.323 0.375217 496.967 2.22341L497.748 4.06458ZM511.085 1.456C515.955 1.456 520.429 2.32944 524.519 4.06458L525.3 2.22341C520.942 0.374548 516.2 -0.544004 511.085 -0.544004V1.456ZM524.531 4.06954C528.631 5.74696 532.196 8.13504 535.235 11.2359L536.663 9.83607C533.43 6.53695 529.636 3.99703 525.288 2.21845L524.531 4.06954ZM535.249 11.2502C538.353 14.2917 540.775 17.8609 542.517 21.9665L544.358 21.1854C542.516 16.8431 539.946 13.0523 536.649 9.82178L535.249 11.2502ZM542.517 21.9665C544.253 26.0597 545.125 30.47 545.125 35.208H547.125C547.125 30.218 546.205 25.5403 544.358 21.1854L542.517 21.9665ZM545.125 35.208C545.125 39.946 544.253 44.3563 542.517 48.4494L544.358 49.2306C546.205 44.8757 547.125 40.198 547.125 35.208H545.125ZM542.517 48.4494C540.774 52.5569 538.35 56.161 535.242 59.2689L536.656 60.6831C539.948 57.391 542.516 53.5711 544.358 49.2306L542.517 48.4494ZM535.242 59.2689C532.2 62.3109 528.629 64.7038 524.519 66.4474L525.3 68.2886C529.638 66.4482 533.426 63.9131 536.656 60.6831L535.242 59.2689ZM524.514 66.4496C520.489 68.1832 516.081 69.056 511.277 69.056V71.056C516.329 71.056 521.009 70.1368 525.305 68.2864L524.514 66.4496ZM511.085 58.864C515.588 58.864 519.548 57.8693 522.928 55.8415L521.899 54.1265C518.878 55.9387 515.286 56.864 511.085 56.864V58.864ZM522.928 55.8415C526.289 53.8248 528.911 51.0318 530.785 47.4831L529.017 46.5489C527.308 49.7842 524.938 52.3032 521.899 54.1265L522.928 55.8415ZM530.779 47.496C532.728 43.933 533.685 39.7943 533.685 35.112H531.685C531.685 39.5177 530.786 43.315 529.024 46.536L530.779 47.496ZM533.685 35.112C533.685 31.6807 533.157 28.5207 532.086 25.6433L530.212 26.3407C531.189 28.9673 531.685 31.8873 531.685 35.112H533.685ZM532.086 25.6433C531.017 22.7702 529.474 20.282 527.452 18.1926L526.015 19.5834C527.833 21.462 529.233 23.7098 530.212 26.3407L532.086 25.6433ZM527.463 18.2041C525.444 16.0512 523.054 14.402 520.3 13.2603L519.534 15.1077C522.029 16.142 524.182 17.6288 526.004 19.5719L527.463 18.2041ZM520.3 13.2603C517.538 12.115 514.461 11.552 511.085 11.552V13.552C514.237 13.552 517.048 14.077 519.534 15.1077L520.3 13.2603ZM511.085 11.552C506.704 11.552 502.781 12.5495 499.346 14.5701L500.36 16.2939C503.453 14.4745 507.018 13.552 511.085 13.552V11.552ZM499.352 14.567C495.986 16.5188 493.332 19.2793 491.392 22.824L493.147 23.784C494.919 20.5447 497.32 18.0572 500.355 16.297L499.352 14.567ZM491.385 22.8369C489.505 26.3952 488.581 30.4966 488.581 35.112H490.581C490.581 30.7674 491.449 26.9968 493.153 23.7711L491.385 22.8369ZM488.581 35.112C488.581 38.6053 489.109 41.8268 490.177 44.7657L492.057 44.0823C491.078 41.3892 490.581 38.4027 490.581 35.112H488.581ZM490.184 44.7844C491.314 47.7067 492.85 50.2197 494.803 52.3072L496.264 50.9408C494.504 49.0603 493.097 46.7733 492.05 44.0636L490.184 44.7844ZM494.815 52.3194C496.832 54.4045 499.22 56.0169 501.966 57.1557L502.732 55.3083C500.231 54.2711 498.074 52.8115 496.252 50.9286L494.815 52.3194ZM501.974 57.1589C504.791 58.299 507.831 58.864 511.085 58.864V56.864C508.067 56.864 505.284 56.341 502.724 55.3051L501.974 57.1589ZM565.403 69H564.403V70H565.403V69ZM565.403 57.384V56.384H564.403V57.384H565.403ZM594.01 54.696L594.492 55.5726L594.498 55.569L594.505 55.5653L594.01 54.696ZM601.594 46.92L600.721 46.4329L600.718 46.4394L600.714 46.4459L601.594 46.92ZM601.594 23.592L600.721 24.0791L600.725 24.0863L601.594 23.592ZM593.914 15.912L593.42 16.7813L593.427 16.785L593.433 16.7886L593.914 15.912ZM565.115 13.128H564.115V14.128H565.115V13.128ZM565.115 1.512V0.511999H564.115V1.512H565.115ZM596.602 4.008L596.236 4.93842L596.241 4.94026L596.602 4.008ZM607.739 11.112L607.039 11.8264L607.046 11.8336L607.054 11.8406L607.739 11.112ZM615.13 21.768L614.209 22.1567L614.214 22.1688L615.13 21.768ZM615.13 48.744L614.212 48.3484L614.209 48.3553L615.13 48.744ZM607.835 59.496L608.527 60.2177L608.534 60.2104L607.835 59.496ZM596.698 66.504L596.337 65.5717L596.332 65.5736L596.698 66.504ZM556.474 69H555.474V70H556.474V69ZM556.474 1.512V0.511999H555.474V1.512H556.474ZM569.531 1.512H570.531V0.511999H569.531V1.512ZM569.531 69V70H570.531V69H569.531ZM566.403 69V57.384H564.403V69H566.403ZM565.403 58.384H582.586V56.384H565.403V58.384ZM582.586 58.384C587.078 58.384 591.057 57.4583 594.492 55.5726L593.529 53.8194C590.436 55.5177 586.799 56.384 582.586 56.384V58.384ZM594.505 55.5653C597.933 53.6158 600.595 50.8863 602.475 47.3941L600.714 46.4459C599.01 49.6097 596.616 52.0642 593.516 53.8267L594.505 55.5653ZM602.468 47.4071C604.422 43.9039 605.378 39.7937 605.378 35.112H603.378C603.378 39.5183 602.479 43.2801 600.721 46.4329L602.468 47.4071ZM605.378 35.112C605.378 30.5534 604.419 26.537 602.464 23.0977L600.725 24.0863C602.482 27.175 603.378 30.8386 603.378 35.112H605.378ZM602.468 23.1049C600.523 19.6169 597.828 16.92 594.396 15.0354L593.433 16.7886C596.529 18.4879 598.954 20.9111 600.721 24.0791L602.468 23.1049ZM594.409 15.0427C590.974 13.0895 587.023 12.128 582.586 12.128V14.128C586.726 14.128 590.327 15.0225 593.42 16.7813L594.409 15.0427ZM582.586 12.128H565.115V14.128H582.586V12.128ZM566.115 13.128V1.512H564.115V13.128H566.115ZM565.115 2.512H582.779V0.511999H565.115V2.512ZM582.779 2.512C587.658 2.512 592.14 3.32476 596.236 4.9384L596.969 3.07759C592.617 1.36323 587.883 0.511999 582.779 0.511999V2.512ZM596.241 4.94026C600.409 6.55765 604.004 8.85364 607.039 11.8264L608.438 10.3976C605.201 7.22636 601.372 4.78634 596.964 3.07573L596.241 4.94026ZM607.054 11.8406C610.151 14.7519 612.535 18.1876 614.209 22.1567L616.052 21.3793C614.27 17.1564 611.726 13.4881 608.423 10.3834L607.054 11.8406ZM614.214 22.1688C615.946 26.1277 616.818 30.4697 616.818 35.208H618.818C618.818 30.2183 617.899 25.6003 616.047 21.3672L614.214 22.1688ZM616.818 35.208C616.818 39.9461 615.946 44.3223 614.212 48.3484L616.049 49.1396C617.899 44.8457 618.818 40.1979 618.818 35.208H616.818ZM614.209 48.3553C612.532 52.3307 610.175 55.8036 607.135 58.7816L608.534 60.2104C611.766 57.0444 614.273 53.3493 616.052 49.1327L614.209 48.3553ZM607.142 58.7743C604.107 61.6858 600.509 63.9526 596.337 65.5717L597.06 67.4363C601.464 65.7274 605.29 63.3223 608.527 60.2177L607.142 58.7743ZM596.332 65.5736C592.234 67.1878 587.784 68 582.971 68V70C588.013 70 592.715 69.1482 597.065 67.4344L596.332 65.5736ZM582.971 68H565.403V70H582.971V68ZM557.474 69V1.512H555.474V69H557.474ZM556.474 2.512H569.531V0.511999H556.474V2.512ZM568.531 1.512V69H570.531V1.512H568.531ZM569.531 68H556.474V70H569.531V68ZM646.943 69H645.943V70H646.943V69ZM646.943 1.512V0.511999H645.943V1.512H646.943ZM659.999 1.512H660.999V0.511999H659.999V1.512ZM659.999 69V70H660.999V69H659.999ZM689.279 69H688.279V70H689.279V69ZM689.279 1.512V0.511999H688.279V1.512H689.279ZM702.335 1.512H703.335V0.511999H702.335V1.512ZM702.335 69V70H703.335V69H702.335ZM655.199 39.912H654.199V40.912H655.199V39.912ZM655.199 28.392V27.392H654.199V28.392H655.199ZM692.927 28.392H693.927V27.392H692.927V28.392ZM692.927 39.912V40.912H693.927V39.912H692.927ZM647.943 69V1.512H645.943V69H647.943ZM646.943 2.512H659.999V0.511999H646.943V2.512ZM658.999 1.512V69H660.999V1.512H658.999ZM659.999 68H646.943V70H659.999V68ZM690.279 69V1.512H688.279V69H690.279ZM689.279 2.512H702.335V0.511999H689.279V2.512ZM701.335 1.512V69H703.335V1.512H701.335ZM702.335 68H689.279V70H702.335V68ZM656.199 39.912V28.392H654.199V39.912H656.199ZM655.199 29.392H692.927V27.392H655.199V29.392ZM691.927 28.392V39.912H693.927V28.392H691.927ZM692.927 38.912H655.199V40.912H692.927V38.912ZM711.139 69L710.211 68.6266L709.658 70H711.139V69ZM738.307 1.512V0.511999H737.631L737.379 1.13856L738.307 1.512ZM748.963 1.512L749.891 1.1397L749.639 0.511999H748.963V1.512ZM776.035 69V70H777.513L776.963 68.6277L776.035 69ZM762.115 69L761.179 69.3534L761.424 70H762.115V69ZM741.187 13.608V12.608H739.74L740.251 13.9614L741.187 13.608ZM745.987 13.608L746.921 13.9657L747.441 12.608H745.987V13.608ZM724.771 69V70H725.459L725.705 69.3577L724.771 69ZM725.539 56.424H724.539V57.424H725.539V56.424ZM725.539 45.48V44.48H724.539V45.48H725.539ZM761.827 45.48H762.827V44.48H761.827V45.48ZM761.827 56.424V57.424H762.827V56.424H761.827ZM712.066 69.3734L739.234 1.88544L737.379 1.13856L710.211 68.6266L712.066 69.3734ZM738.307 2.512H748.963V0.511999H738.307V2.512ZM748.035 1.8843L775.107 69.3723L776.963 68.6277L749.891 1.1397L748.035 1.8843ZM776.035 68H762.115V70H776.035V68ZM763.05 68.6466L742.122 13.2546L740.251 13.9614L761.179 69.3534L763.05 68.6466ZM741.187 14.608H745.987V12.608H741.187V14.608ZM745.053 13.2503L723.837 68.6423L725.705 69.3577L746.921 13.9657L745.053 13.2503ZM724.771 68H711.139V70H724.771V68ZM726.539 56.424V45.48H724.539V56.424H726.539ZM725.539 46.48H761.827V44.48H725.539V46.48ZM760.827 45.48V56.424H762.827V45.48H760.827ZM761.827 55.424H725.539V57.424H761.827V55.424ZM788.167 67.176L787.732 68.0764L787.738 68.0791L788.167 67.176ZM777.703 58.824L776.996 58.1169L776.346 58.767L776.94 59.4694L777.703 58.824ZM786.344 50.184L787.141 49.5809L786.448 48.6648L785.636 49.4769L786.344 50.184ZM793.255 56.328L792.766 57.2001L792.774 57.2047L792.783 57.2092L793.255 56.328ZM810.919 56.424L810.371 55.588L810.365 55.592L810.359 55.5961L810.919 56.424ZM807.656 42.6L807.221 43.5006L807.233 43.5062L807.656 42.6ZM801.416 40.2L801.091 41.1459L801.107 41.1514L801.123 41.1563L801.416 40.2ZM794.599 37.608L794.206 38.5272L794.215 38.5311L794.599 37.608ZM788.359 34.056L787.738 34.8395L787.753 34.8512L787.768 34.8624L788.359 34.056ZM783.847 28.488L782.953 28.9352L782.958 28.9453L783.847 28.488ZM785.096 9.384L784.272 8.81669L785.096 9.384ZM793.255 2.75999L792.849 1.84618L793.255 2.75999ZM817.448 3.048L817.87 2.14141L817.448 3.048ZM826.568 9.768L827.275 10.4751L827.931 9.81904L827.326 9.11575L826.568 9.768ZM817.927 18.408L817.189 19.0818L817.894 19.8556L818.635 19.1151L817.927 18.408ZM811.784 13.608L811.336 14.5025L811.347 14.5078L811.784 13.608ZM797.672 13.8L798.226 14.632L797.672 13.8ZM796.807 23.304L796.1 24.0111L796.807 23.304ZM801.32 26.28L800.91 27.1926L800.922 27.1976L801.32 26.28ZM807.56 28.68L807.235 29.626L807.243 29.6287L807.56 28.68ZM814.375 31.272L813.982 32.1912L813.991 32.1951L814.375 31.272ZM820.615 35.016L819.978 35.7864L819.984 35.7917L819.991 35.7969L820.615 35.016ZM825.224 40.968L824.32 41.3961L824.324 41.4055L825.224 40.968ZM820.328 64.584L819.697 63.8075L820.328 64.584ZM802.183 68.96C796.855 68.96 792.337 68.0508 788.597 66.2729L787.738 68.0791C791.806 70.0132 796.632 70.96 802.183 70.96V68.96ZM788.603 66.2757C784.905 64.4886 781.526 61.7984 778.467 58.1786L776.94 59.4694C780.154 63.2736 783.75 66.1514 787.732 68.0763L788.603 66.2757ZM778.411 59.5311L787.051 50.8911L785.636 49.4769L776.996 58.1169L778.411 59.5311ZM785.546 50.7871C787.605 53.5107 790.011 55.6546 792.766 57.2001L793.745 55.4559C791.252 54.0574 789.05 52.1053 787.141 49.5809L785.546 50.7871ZM792.783 57.2092C795.586 58.7133 798.958 59.44 802.856 59.44V57.44C799.201 57.44 796.173 56.7587 793.728 55.4468L792.783 57.2092ZM802.856 59.44C806.368 59.44 809.275 58.7457 811.48 57.2519L810.359 55.5961C808.596 56.7903 806.127 57.44 802.856 57.44V59.44ZM811.468 57.26C813.786 55.7389 814.992 53.5747 814.992 50.856H812.992C812.992 52.8733 812.149 54.4211 810.371 55.588L811.468 57.26ZM814.992 50.856C814.992 48.6104 814.354 46.6923 813.007 45.195L811.52 46.533C812.477 47.5957 812.992 49.0056 812.992 50.856H814.992ZM813.007 45.195C811.747 43.7951 810.093 42.6339 808.078 41.6938L807.233 43.5062C809.058 44.3581 810.476 45.3729 811.52 46.533L813.007 45.195ZM808.09 41.6994C806.181 40.7779 804.053 39.9602 801.708 39.2436L801.123 41.1563C803.386 41.8478 805.418 42.6301 807.221 43.5005L808.09 41.6994ZM801.74 39.2541C799.521 38.4934 797.269 37.6371 794.984 36.6849L794.215 38.5311C796.538 39.4989 798.83 40.3706 801.091 41.1459L801.74 39.2541ZM794.993 36.6889C792.822 35.7581 790.808 34.6116 788.951 33.2496L787.768 34.8624C789.751 36.3164 791.897 37.5379 794.206 38.5271L794.993 36.6889ZM788.981 33.2725C787.243 31.8944 785.828 30.1523 784.737 28.0307L782.958 28.9453C784.171 31.3037 785.764 33.2735 787.738 34.8395L788.981 33.2725ZM784.742 28.0408C783.679 25.9147 783.12 23.1993 783.12 19.848H781.12C781.12 23.4086 781.712 26.4533 782.953 28.9352L784.742 28.0408ZM783.12 19.848C783.12 15.919 784.069 12.6374 785.919 9.9513L784.272 8.81669C782.154 11.8906 781.12 15.585 781.12 19.848H783.12ZM785.919 9.9513C787.79 7.23538 790.36 5.14129 793.662 3.67381L792.849 1.84618C789.239 3.4507 786.369 5.77261 784.272 8.81669L785.919 9.9513ZM793.662 3.67381C796.972 2.20258 800.734 1.456 804.968 1.456V-0.544004C800.497 -0.544004 796.451 0.245415 792.849 1.84618L793.662 3.67381ZM804.968 1.456C809.448 1.456 813.461 2.29542 817.025 3.95458L817.87 2.14141C814.01 0.344576 809.703 -0.544004 804.968 -0.544004V1.456ZM817.025 3.95458C820.625 5.6303 823.545 7.7889 825.81 10.4202L827.326 9.11575C824.854 6.24309 821.694 3.92169 817.87 2.14141L817.025 3.95458ZM825.86 9.06089L817.22 17.7009L818.635 19.1151L827.275 10.4751L825.86 9.06089ZM818.666 17.7342C816.618 15.4874 814.471 13.7998 812.22 12.7082L811.347 14.5078C813.32 15.4642 815.269 16.9766 817.189 19.0818L818.666 17.7342ZM812.231 12.7136C810.025 11.6106 807.532 11.072 804.776 11.072V13.072C807.267 13.072 809.446 13.5574 811.336 14.5024L812.231 12.7136ZM804.776 11.072C801.654 11.072 799.067 11.6676 797.117 12.9679L798.226 14.632C799.732 13.6284 801.881 13.072 804.776 13.072V11.072ZM797.117 12.9679C795.095 14.3158 794.08 16.3007 794.08 18.792H796.08C796.08 16.9313 796.792 15.5882 798.226 14.632L797.117 12.9679ZM794.08 18.792C794.08 20.8731 794.734 22.645 796.1 24.0111L797.515 22.5969C796.577 21.659 796.08 20.4229 796.08 18.792H794.08ZM796.1 24.0111C797.357 25.2675 798.97 26.3226 800.91 27.1925L801.729 25.3675C799.957 24.5734 798.562 23.6444 797.515 22.5969L796.1 24.0111ZM800.922 27.1976C802.869 28.0412 804.974 28.8505 807.235 29.6259L807.884 27.7341C805.665 26.9735 803.61 26.1828 801.717 25.3624L800.922 27.1976ZM807.243 29.6287C809.521 30.3879 811.767 31.242 813.982 32.1911L814.769 30.3529C812.504 29.382 810.206 28.5081 807.876 27.7313L807.243 29.6287ZM813.991 32.1951C816.207 33.1184 818.201 34.3158 819.978 35.7864L821.253 34.2456C819.318 32.6442 817.152 31.3456 814.76 30.3489L813.991 32.1951ZM819.991 35.7969C821.781 37.2293 823.227 39.0882 824.32 41.3961L826.127 40.5399C824.916 37.9838 823.29 35.8747 821.24 34.2351L819.991 35.7969ZM824.324 41.4055C825.392 43.5993 825.951 46.3829 825.951 49.8H827.951C827.951 46.1771 827.359 43.0727 826.123 40.5305L824.324 41.4055ZM825.951 49.8C825.951 55.8059 823.853 60.4346 819.697 63.8075L820.958 65.3605C825.634 61.5654 827.951 56.3381 827.951 49.8H825.951ZM819.697 63.8075C815.513 67.2034 809.714 68.96 802.183 68.96V70.96C810.013 70.96 816.31 69.1326 820.958 65.3605L819.697 63.8075ZM848.295 69L847.367 68.6266L846.814 70H848.295V69ZM875.463 1.512V0.511999H874.788L874.535 1.13856L875.463 1.512ZM886.119 1.512L887.047 1.1397L886.795 0.511999H886.119V1.512ZM913.191 69V70H914.67L914.119 68.6277L913.191 69ZM899.271 69L898.336 69.3534L898.58 70H899.271V69ZM878.343 13.608V12.608H876.896L877.408 13.9614L878.343 13.608ZM883.143 13.608L884.077 13.9657L884.597 12.608H883.143V13.608ZM861.927 69V70H862.615L862.861 69.3577L861.927 69ZM862.695 56.424H861.695V57.424H862.695V56.424ZM862.695 45.48V44.48H861.695V45.48H862.695ZM898.983 45.48H899.983V44.48H898.983V45.48ZM898.983 56.424V57.424H899.983V56.424H898.983ZM849.223 69.3734L876.391 1.88544L874.535 1.13856L847.367 68.6266L849.223 69.3734ZM875.463 2.512H886.119V0.511999H875.463V2.512ZM885.191 1.8843L912.263 69.3723L914.119 68.6277L887.047 1.1397L885.191 1.8843ZM913.191 68H899.271V70H913.191V68ZM900.206 68.6466L879.278 13.2546L877.408 13.9614L898.336 69.3534L900.206 68.6466ZM878.343 14.608H883.143V12.608H878.343V14.608ZM882.209 13.2503L860.993 68.6423L862.861 69.3577L884.077 13.9657L882.209 13.2503ZM861.927 68H848.295V70H861.927V68ZM863.695 56.424V45.48H861.695V56.424H863.695ZM862.695 46.48H898.983V44.48H862.695V46.48ZM897.983 45.48V56.424H899.983V45.48H897.983ZM898.983 55.424H862.695V57.424H898.983V55.424ZM937.943 69H936.943V70H937.943V69ZM937.943 1.512V0.511999H936.943V1.512H937.943ZM950.999 1.512H951.999V0.511999H950.999V1.512ZM950.999 69V70H951.999V69H950.999ZM947.543 41.352H946.543V42.352H947.543V41.352ZM947.543 29.736V28.736H946.543V29.736H947.543ZM981.527 29.736H982.527V28.736H981.527V29.736ZM981.527 41.352V42.352H982.527V41.352H981.527ZM947.543 13.032H946.543V14.032H947.543V13.032ZM947.543 1.512V0.511999H946.543V1.512H947.543ZM983.159 1.512H984.159V0.511999H983.159V1.512ZM983.159 13.032V14.032H984.159V13.032H983.159ZM938.943 69V1.512H936.943V69H938.943ZM937.943 2.512H950.999V0.511999H937.943V2.512ZM949.999 1.512V69H951.999V1.512H949.999ZM950.999 68H937.943V70H950.999V68ZM948.543 41.352V29.736H946.543V41.352H948.543ZM947.543 30.736H981.527V28.736H947.543V30.736ZM980.527 29.736V41.352H982.527V29.736H980.527ZM981.527 40.352H947.543V42.352H981.527V40.352ZM948.543 13.032V1.512H946.543V13.032H948.543ZM947.543 2.512H983.159V0.511999H947.543V2.512ZM982.159 1.512V13.032H984.159V1.512H982.159ZM983.159 12.032H947.543V14.032H983.159V12.032ZM1003.04 40.776H1002.04V41.776H1003.04V40.776ZM1003.04 30.6V29.6H1002.04V30.6H1003.04ZM1026.08 28.2L1026.76 28.9338L1026.76 28.9328L1026.08 28.2ZM1026.08 14.856L1025.36 15.5501L1025.38 15.5632L1025.39 15.5758L1026.08 14.856ZM1003.04 12.168H1002.04V13.168H1003.04V12.168ZM1003.04 1.512V0.511999H1002.04V1.512H1003.04ZM1031.27 4.10399L1030.8 4.98778L1030.81 4.99322L1030.82 4.99842L1031.27 4.10399ZM1038.95 11.016L1038.09 11.5359L1038.1 11.5427L1038.1 11.5493L1038.95 11.016ZM1038.95 31.56L1038.1 31.0267L1038.1 31.0317L1038.95 31.56ZM1031.27 38.376L1031.7 39.2773L1031.71 39.2739L1031.71 39.2704L1031.27 38.376ZM993.443 69H992.443V70H993.443V69ZM993.443 1.512V0.511999H992.443V1.512H993.443ZM1006.5 1.512H1007.5V0.511999H1006.5V1.512ZM1006.5 69V70H1007.5V69H1006.5ZM1030.31 69L1029.51 69.6067L1029.81 70H1030.31V69ZM1008.04 39.816L1007.74 38.8614L1006.37 39.2869L1007.24 40.4227L1008.04 39.816ZM1020.04 36.072L1020.82 35.4507L1020.39 34.913L1019.74 35.1174L1020.04 36.072ZM1046.15 69V70H1048.22L1046.93 68.3787L1046.15 69ZM1004.04 40.776V30.6H1002.04V40.776H1004.04ZM1003.04 31.6H1018.69V29.6H1003.04V31.6ZM1018.69 31.6C1022.05 31.6 1024.79 30.7584 1026.76 28.9338L1025.4 27.4662C1023.92 28.8416 1021.73 29.6 1018.69 29.6V31.6ZM1026.76 28.9328C1028.8 27.0458 1029.77 24.4882 1029.77 21.384H1027.77C1027.77 24.0398 1026.95 26.0262 1025.4 27.4672L1026.76 28.9328ZM1029.77 21.384C1029.77 18.5049 1028.78 16.0637 1026.78 14.1362L1025.39 15.5758C1026.97 17.1043 1027.77 19.0151 1027.77 21.384H1029.77ZM1026.8 14.1619C1024.84 12.1226 1022.08 11.168 1018.69 11.168V13.168C1021.7 13.168 1023.87 14.0054 1025.36 15.5501L1026.8 14.1619ZM1018.69 11.168H1003.04V13.168H1018.69V11.168ZM1004.04 12.168V1.512H1002.04V12.168H1004.04ZM1003.04 2.512H1019.84V0.511999H1003.04V2.512ZM1019.84 2.512C1024.06 2.512 1027.7 3.34864 1030.8 4.98778L1031.74 3.22021C1028.3 1.40336 1024.33 0.511999 1019.84 0.511999V2.512ZM1030.82 4.99842C1033.99 6.5853 1036.41 8.76535 1038.09 11.5359L1039.8 10.4961C1037.9 7.37864 1035.2 4.95069 1031.71 3.20957L1030.82 4.99842ZM1038.1 11.5493C1039.85 14.3174 1040.73 17.5206 1040.73 21.192H1042.73C1042.73 17.1834 1041.76 13.6026 1039.79 10.4827L1038.1 11.5493ZM1040.73 21.192C1040.73 24.9984 1039.84 28.2638 1038.1 31.0267L1039.79 32.0933C1041.76 28.9682 1042.73 25.3216 1042.73 21.192H1040.73ZM1038.1 31.0317C1036.41 33.7399 1034 35.8919 1030.82 37.4816L1031.71 39.2704C1035.19 37.5321 1037.9 35.1401 1039.8 32.0883L1038.1 31.0317ZM1030.83 37.4747C1027.67 38.9982 1023.95 39.776 1019.65 39.776V41.776C1024.19 41.776 1028.21 40.9538 1031.7 39.2773L1030.83 37.4747ZM1019.65 39.776H1003.04V41.776H1019.65V39.776ZM994.443 69V1.512H992.443V69H994.443ZM993.443 2.512H1006.5V0.511999H993.443V2.512ZM1005.5 1.512V69H1007.5V1.512H1005.5ZM1006.5 68H993.443V70H1006.5V68ZM1031.1 68.3933L1008.83 39.2093L1007.24 40.4227L1029.51 69.6067L1031.1 68.3933ZM1008.33 40.7706L1020.33 37.0266L1019.74 35.1174L1007.74 38.8614L1008.33 40.7706ZM1019.25 36.6933L1045.36 69.6213L1046.93 68.3787L1020.82 35.4507L1019.25 36.6933ZM1046.15 68H1030.31V70H1046.15V68ZM1046.39 69L1045.46 68.6266L1044.91 70H1046.39V69ZM1073.56 1.512V0.511999H1072.88L1072.63 1.13856L1073.56 1.512ZM1084.21 1.512L1085.14 1.1397L1084.89 0.511999H1084.21V1.512ZM1111.28 69V70H1112.76L1112.21 68.6277L1111.28 69ZM1097.36 69L1096.43 69.3534L1096.67 70H1097.36V69ZM1076.44 13.608V12.608H1074.99L1075.5 13.9614L1076.44 13.608ZM1081.24 13.608L1082.17 13.9657L1082.69 12.608H1081.24V13.608ZM1060.02 69V70H1060.71L1060.95 69.3577L1060.02 69ZM1060.79 56.424H1059.79V57.424H1060.79V56.424ZM1060.79 45.48V44.48H1059.79V45.48H1060.79ZM1097.08 45.48H1098.08V44.48H1097.08V45.48ZM1097.08 56.424V57.424H1098.08V56.424H1097.08ZM1047.32 69.3734L1074.48 1.88544L1072.63 1.13856L1045.46 68.6266L1047.32 69.3734ZM1073.56 2.512H1084.21V0.511999H1073.56V2.512ZM1083.28 1.8843L1110.36 69.3723L1112.21 68.6277L1085.14 1.1397L1083.28 1.8843ZM1111.28 68H1097.36V70H1111.28V68ZM1098.3 68.6466L1077.37 13.2546L1075.5 13.9614L1096.43 69.3534L1098.3 68.6466ZM1076.44 14.608H1081.24V12.608H1076.44V14.608ZM1080.3 13.2503L1059.09 68.6423L1060.95 69.3577L1082.17 13.9657L1080.3 13.2503ZM1060.02 68H1046.39V70H1060.02V68ZM1061.79 56.424V45.48H1059.79V56.424H1061.79ZM1060.79 46.48H1097.08V44.48H1060.79V46.48ZM1096.08 45.48V56.424H1098.08V45.48H1096.08ZM1097.08 55.424H1060.79V57.424H1097.08V55.424ZM1119.26 69H1118.26V70H1119.26V69ZM1119.26 1.512V0.511999H1118.26V1.512H1119.26ZM1128.47 1.512L1129.32 0.982L1129.03 0.511999H1128.47V1.512ZM1155.83 45.288V46.288H1157.64L1156.68 44.758L1155.83 45.288ZM1150.55 45.288L1149.7 44.7593L1148.75 46.288H1150.55V45.288ZM1177.82 1.512V0.511999H1177.26L1176.97 0.983339L1177.82 1.512ZM1187.03 1.512H1188.03V0.511999H1187.03V1.512ZM1187.03 69V70H1188.03V69H1187.03ZM1174.07 69H1173.07V70H1174.07V69ZM1174.07 23.88L1174.37 22.9242L1173.07 22.526V23.88H1174.07ZM1176.57 24.648L1177.42 25.1766L1178.1 24.0741L1176.86 23.6922L1176.57 24.648ZM1157.56 55.176V56.176H1158.12L1158.41 55.7046L1157.56 55.176ZM1148.73 55.176L1147.88 55.7046L1148.17 56.176H1148.73V55.176ZM1129.72 24.648L1129.44 23.6892L1128.18 24.0621L1128.87 25.1766L1129.72 24.648ZM1132.31 23.88H1133.31V22.5407L1132.03 22.9212L1132.31 23.88ZM1132.31 69V70H1133.31V69H1132.31ZM1120.26 69V1.512H1118.26V69H1120.26ZM1119.26 2.512H1128.47V0.511999H1119.26V2.512ZM1127.62 2.042L1154.98 45.818L1156.68 44.758L1129.32 0.982L1127.62 2.042ZM1155.83 44.288H1150.55V46.288H1155.83V44.288ZM1151.4 45.8167L1178.66 2.04066L1176.97 0.983339L1149.7 44.7593L1151.4 45.8167ZM1177.82 2.512H1187.03V0.511999H1177.82V2.512ZM1186.03 1.512V69H1188.03V1.512H1186.03ZM1187.03 68H1174.07V70H1187.03V68ZM1175.07 69V23.88H1173.07V69H1175.07ZM1173.78 24.8358L1176.27 25.6038L1176.86 23.6922L1174.37 22.9242L1173.78 24.8358ZM1175.72 24.1194L1156.71 54.6474L1158.41 55.7046L1177.42 25.1766L1175.72 24.1194ZM1157.56 54.176H1148.73V56.176H1157.56V54.176ZM1149.58 54.6474L1130.57 24.1194L1128.87 25.1766L1147.88 55.7046L1149.58 54.6474ZM1130 25.6068L1132.6 24.8388L1132.03 22.9212L1129.44 23.6892L1130 25.6068ZM1131.31 23.88V69H1133.31V23.88H1131.31ZM1132.31 68H1119.26V70H1132.31V68ZM1200.82 69H1199.82V70H1200.82V69ZM1200.82 1.512V0.511999H1199.82V1.512H1200.82ZM1213.87 1.512H1214.87V0.511999H1213.87V1.512ZM1213.87 69V70H1214.87V69H1213.87ZM1210.42 69H1209.42V70H1210.42V69ZM1210.42 57.48V56.48H1209.42V57.48H1210.42ZM1247.76 57.48H1248.76V56.48H1247.76V57.48ZM1247.76 69V70H1248.76V69H1247.76ZM1210.42 40.104H1209.42V41.104H1210.42V40.104ZM1210.42 28.968V27.968H1209.42V28.968H1210.42ZM1244.4 28.968H1245.4V27.968H1244.4V28.968ZM1244.4 40.104V41.104H1245.4V40.104H1244.4ZM1210.42 13.032H1209.42V14.032H1210.42V13.032ZM1210.42 1.512V0.511999H1209.42V1.512H1210.42ZM1247.28 1.512H1248.28V0.511999H1247.28V1.512ZM1247.28 13.032V14.032H1248.28V13.032H1247.28ZM1201.82 69V1.512H1199.82V69H1201.82ZM1200.82 2.512H1213.87V0.511999H1200.82V2.512ZM1212.87 1.512V69H1214.87V1.512H1212.87ZM1213.87 68H1200.82V70H1213.87V68ZM1211.42 69V57.48H1209.42V69H1211.42ZM1210.42 58.48H1247.76V56.48H1210.42V58.48ZM1246.76 57.48V69H1248.76V57.48H1246.76ZM1247.76 68H1210.42V70H1247.76V68ZM1211.42 40.104V28.968H1209.42V40.104H1211.42ZM1210.42 29.968H1244.4V27.968H1210.42V29.968ZM1243.4 28.968V40.104H1245.4V28.968H1243.4ZM1244.4 39.104H1210.42V41.104H1244.4V39.104ZM1211.42 13.032V1.512H1209.42V13.032H1211.42ZM1210.42 2.512H1247.28V0.511999H1210.42V2.512ZM1246.28 1.512V13.032H1248.28V1.512H1246.28ZM1247.28 12.032H1210.42V14.032H1247.28V12.032Z" fill="white" mask="url(#path-1-outside-1_45_126)"/>
</g>
</svg>
