<svg width="311" height="68" viewBox="0 0 311 68" fill="none" xmlns="http://www.w3.org/2000/svg">
<mask id="path-1-outside-1_45_130" maskUnits="userSpaceOnUse" x="-1" y="-1" width="313" height="70" fill="black">
<rect fill="white" x="-1" y="-1" width="313" height="70"/>
<path d="M0.912 68V0.511999H13.968V68H0.912ZM10.512 40.352V28.736H44.496V40.352H10.512ZM10.512 12.032V0.511999H46.128V12.032H10.512ZM66.012 39.776V29.6H81.66C84.86 29.6 87.324 28.8 89.052 27.2C90.844 25.536 91.74 23.264 91.74 20.384C91.74 17.76 90.844 15.584 89.052 13.856C87.324 12.064 84.86 11.168 81.66 11.168H66.012V0.511999H82.812C87.164 0.511999 90.972 1.376 94.236 3.10399C97.564 4.768 100.124 7.072 101.916 10.016C103.772 12.96 104.7 16.352 104.7 20.192C104.7 24.16 103.772 27.616 101.916 30.56C100.124 33.44 97.564 35.712 94.236 37.376C90.908 38.976 87.036 39.776 82.62 39.776H66.012ZM56.412 68V0.511999H69.468V68H56.412ZM93.276 68L71.004 38.816L83.004 35.072L109.116 68H93.276ZM109.358 68L136.526 0.511999H147.182L174.254 68H160.333L139.406 12.608H144.206L122.99 68H109.358ZM123.758 55.424V44.48H160.046V55.424H123.758ZM182.225 68V0.511999H191.441L218.801 44.288H213.521L240.785 0.511999H250.001V68H237.041V22.88L239.537 23.648L220.529 54.176H211.697L192.689 23.648L195.281 22.88V68H182.225ZM263.787 68V0.511999H276.843V68H263.787ZM273.387 68V56.48H310.731V68H273.387ZM273.387 39.104V27.968H307.371V39.104H273.387ZM273.387 12.032V0.511999H310.251V12.032H273.387Z"/>
</mask>
<path d="M0.912001 68H-0.0879993V69H0.912001V68ZM0.912001 0.511999V-0.488001H-0.0879993V0.511999H0.912001ZM13.968 0.511999H14.968V-0.488001H13.968V0.511999ZM13.968 68V69H14.968V68H13.968ZM10.512 40.352H9.512V41.352H10.512V40.352ZM10.512 28.736V27.736H9.512V28.736H10.512ZM44.496 28.736H45.496V27.736H44.496V28.736ZM44.496 40.352V41.352H45.496V40.352H44.496ZM10.512 12.032H9.512V13.032H10.512V12.032ZM10.512 0.511999V-0.488001H9.512V0.511999H10.512ZM46.128 0.511999H47.128V-0.488001H46.128V0.511999ZM46.128 12.032V13.032H47.128V12.032H46.128ZM1.912 68V0.511999H-0.0879993V68H1.912ZM0.912001 1.512H13.968V-0.488001H0.912001V1.512ZM12.968 0.511999V68H14.968V0.511999H12.968ZM13.968 67H0.912001V69H13.968V67ZM11.512 40.352V28.736H9.512V40.352H11.512ZM10.512 29.736H44.496V27.736H10.512V29.736ZM43.496 28.736V40.352H45.496V28.736H43.496ZM44.496 39.352H10.512V41.352H44.496V39.352ZM11.512 12.032V0.511999H9.512V12.032H11.512ZM10.512 1.512H46.128V-0.488001H10.512V1.512ZM45.128 0.511999V12.032H47.128V0.511999H45.128ZM46.128 11.032H10.512V13.032H46.128V11.032ZM66.012 39.776H65.012V40.776H66.012V39.776ZM66.012 29.6V28.6H65.012V29.6H66.012ZM89.052 27.2L89.7314 27.9338L89.7325 27.9328L89.052 27.2ZM89.052 13.856L88.3322 14.5501L88.3448 14.5632L88.3579 14.5758L89.052 13.856ZM66.012 11.168H65.012V12.168H66.012V11.168ZM66.012 0.511999V-0.488001H65.012V0.511999H66.012ZM94.236 3.10399L93.7681 3.98778L93.7784 3.99322L93.7888 3.99842L94.236 3.10399ZM101.916 10.016L101.062 10.5359L101.066 10.5427L101.07 10.5493L101.916 10.016ZM101.916 30.56L101.07 30.0267L101.067 30.0317L101.916 30.56ZM94.236 37.376L94.6693 38.2773L94.6763 38.2739L94.6832 38.2704L94.236 37.376ZM56.412 68H55.412V69H56.412V68ZM56.412 0.511999V-0.488001H55.412V0.511999H56.412ZM69.468 0.511999H70.468V-0.488001H69.468V0.511999ZM69.468 68V69H70.468V68H69.468ZM93.276 68L92.481 68.6067L92.7812 69H93.276V68ZM71.004 38.816L70.7062 37.8614L69.3423 38.2869L70.2091 39.4227L71.004 38.816ZM83.004 35.072L83.7875 34.4507L83.3612 33.913L82.7062 34.1174L83.004 35.072ZM109.116 68V69H111.185L109.9 67.3787L109.116 68ZM67.012 39.776V29.6H65.012V39.776H67.012ZM66.012 30.6H81.66V28.6H66.012V30.6ZM81.66 30.6C85.0202 30.6 87.7608 29.7584 89.7314 27.9338L88.3726 26.4662C86.8872 27.8416 84.6998 28.6 81.66 28.6V30.6ZM89.7325 27.9328C91.7646 26.0458 92.74 23.4882 92.74 20.384H90.74C90.74 23.0398 89.9234 25.0262 88.3716 26.4672L89.7325 27.9328ZM92.74 20.384C92.74 17.5049 91.7451 15.0637 89.7461 13.1362L88.3579 14.5758C89.9429 16.1043 90.74 18.0151 90.74 20.384H92.74ZM89.7719 13.1619C87.8054 11.1226 85.05 10.168 81.66 10.168V12.168C84.67 12.168 86.8426 13.0054 88.3322 14.5501L89.7719 13.1619ZM81.66 10.168H66.012V12.168H81.66V10.168ZM67.012 11.168V0.511999H65.012V11.168H67.012ZM66.012 1.512H82.812V-0.488001H66.012V1.512ZM82.812 1.512C87.03 1.512 90.6719 2.34864 93.7681 3.98778L94.7039 2.22021C91.2721 0.403358 87.298 -0.488001 82.812 -0.488001V1.512ZM93.7888 3.99842C96.9625 5.5853 99.3754 7.76535 101.062 10.5359L102.77 9.49605C100.873 6.37864 98.1655 3.95069 94.6832 2.20957L93.7888 3.99842ZM101.07 10.5493C102.815 13.3174 103.7 16.5206 103.7 20.192H105.7C105.7 16.1834 104.729 12.6026 102.762 9.4827L101.07 10.5493ZM103.7 20.192C103.7 23.9984 102.812 27.2638 101.07 30.0267L102.762 31.0933C104.732 27.9682 105.7 24.3216 105.7 20.192H103.7ZM101.067 30.0317C99.3819 32.7399 96.9682 34.8919 93.7888 36.4816L94.6832 38.2704C98.1599 36.5321 100.866 34.1401 102.765 31.0883L101.067 30.0317ZM93.8027 36.4747C90.6338 37.9982 86.915 38.776 82.62 38.776V40.776C87.157 40.776 91.1822 39.9538 94.6693 38.2773L93.8027 36.4747ZM82.62 38.776H66.012V40.776H82.62V38.776ZM57.412 68V0.511999H55.412V68H57.412ZM56.412 1.512H69.468V-0.488001H56.412V1.512ZM68.468 0.511999V68H70.468V0.511999H68.468ZM69.468 67H56.412V69H69.468V67ZM94.071 67.3933L71.799 38.2093L70.2091 39.4227L92.481 68.6067L94.071 67.3933ZM71.3018 39.7706L83.3018 36.0266L82.7062 34.1174L70.7062 37.8614L71.3018 39.7706ZM82.2205 35.6933L108.332 68.6213L109.9 67.3787L83.7875 34.4507L82.2205 35.6933ZM109.116 67H93.276V69H109.116V67ZM109.357 68L108.43 67.6266L107.877 69H109.357V68ZM136.525 0.511999V-0.488001H135.85L135.598 0.138561L136.525 0.511999ZM147.182 0.511999L148.11 0.139698L147.858 -0.488001H147.182V0.511999ZM174.254 68V69H175.732L175.182 67.6277L174.254 68ZM160.333 68L159.398 68.3534L159.642 69H160.333V68ZM139.406 12.608V11.608H137.959L138.47 12.9614L139.406 12.608ZM144.206 12.608L145.139 12.9657L145.659 11.608H144.206V12.608ZM122.99 68V69H123.677L123.923 68.3577L122.99 68ZM123.758 55.424H122.758V56.424H123.758V55.424ZM123.758 44.48V43.48H122.758V44.48H123.758ZM160.046 44.48H161.046V43.48H160.046V44.48ZM160.046 55.424V56.424H161.046V55.424H160.046ZM110.285 68.3734L137.453 0.885437L135.598 0.138561L108.43 67.6266L110.285 68.3734ZM136.525 1.512H147.182V-0.488001H136.525V1.512ZM146.253 0.8843L173.325 68.3723L175.182 67.6277L148.11 0.139698L146.253 0.8843ZM174.254 67H160.333V69H174.254V67ZM161.269 67.6466L140.341 12.2546L138.47 12.9614L159.398 68.3534L161.269 67.6466ZM139.406 13.608H144.206V11.608H139.406V13.608ZM143.272 12.2503L122.056 67.6423L123.923 68.3577L145.139 12.9657L143.272 12.2503ZM122.99 67H109.357V69H122.99V67ZM124.758 55.424V44.48H122.758V55.424H124.758ZM123.758 45.48H160.046V43.48H123.758V45.48ZM159.046 44.48V55.424H161.046V44.48H159.046ZM160.046 54.424H123.758V56.424H160.046V54.424ZM182.225 68H181.225V69H182.225V68ZM182.225 0.511999V-0.488001H181.225V0.511999H182.225ZM191.441 0.511999L192.288 -0.0179996L191.995 -0.488001H191.441V0.511999ZM218.801 44.288V45.288H220.605L219.648 43.758L218.801 44.288ZM213.521 44.288L212.672 43.7593L211.72 45.288H213.521V44.288ZM240.785 0.511999V-0.488001H240.229L239.936 -0.0166607L240.785 0.511999ZM250.001 0.511999H251.001V-0.488001H250.001V0.511999ZM250.001 68V69H251.001V68H250.001ZM237.04 68H236.04V69H237.04V68ZM237.04 22.88L237.335 21.9242L236.04 21.526V22.88H237.04ZM239.536 23.648L240.385 24.1766L241.072 23.0741L239.831 22.6922L239.536 23.648ZM220.529 54.176V55.176H221.084L221.377 54.7046L220.529 54.176ZM211.697 54.176L210.848 54.7046L211.141 55.176H211.697V54.176ZM192.689 23.648L192.404 22.6892L191.146 23.0621L191.84 24.1766L192.689 23.648ZM195.281 22.88H196.281V21.5407L194.996 21.9212L195.281 22.88ZM195.281 68V69H196.281V68H195.281ZM183.225 68V0.511999H181.225V68H183.225ZM182.225 1.512H191.441V-0.488001H182.225V1.512ZM190.592 1.042L217.952 44.818L219.648 43.758L192.288 -0.0179996L190.592 1.042ZM218.801 43.288H213.521V45.288H218.801V43.288ZM214.369 44.8167L241.633 1.04066L239.936 -0.0166607L212.672 43.7593L214.369 44.8167ZM240.785 1.512H250.001V-0.488001H240.785V1.512ZM249.001 0.511999V68H251.001V0.511999H249.001ZM250.001 67H237.04V69H250.001V67ZM238.04 68V22.88H236.04V68H238.04ZM236.746 23.8358L239.242 24.6038L239.831 22.6922L237.335 21.9242L236.746 23.8358ZM238.688 23.1194L219.68 53.6474L221.377 54.7046L240.385 24.1766L238.688 23.1194ZM220.529 53.176H211.697V55.176H220.529V53.176ZM212.545 53.6474L193.537 23.1194L191.84 24.1766L210.848 54.7046L212.545 53.6474ZM192.973 24.6068L195.565 23.8388L194.996 21.9212L192.404 22.6892L192.973 24.6068ZM194.281 22.88V68H196.281V22.88H194.281ZM195.281 67H182.225V69H195.281V67ZM263.787 68H262.787V69H263.787V68ZM263.787 0.511999V-0.488001H262.787V0.511999H263.787ZM276.843 0.511999H277.843V-0.488001H276.843V0.511999ZM276.843 68V69H277.843V68H276.843ZM273.387 68H272.387V69H273.387V68ZM273.387 56.48V55.48H272.387V56.48H273.387ZM310.731 56.48H311.731V55.48H310.731V56.48ZM310.731 68V69H311.731V68H310.731ZM273.387 39.104H272.387V40.104H273.387V39.104ZM273.387 27.968V26.968H272.387V27.968H273.387ZM307.371 27.968H308.371V26.968H307.371V27.968ZM307.371 39.104V40.104H308.371V39.104H307.371ZM273.387 12.032H272.387V13.032H273.387V12.032ZM273.387 0.511999V-0.488001H272.387V0.511999H273.387ZM310.251 0.511999H311.251V-0.488001H310.251V0.511999ZM310.251 12.032V13.032H311.251V12.032H310.251ZM264.787 68V0.511999H262.787V68H264.787ZM263.787 1.512H276.843V-0.488001H263.787V1.512ZM275.843 0.511999V68H277.843V0.511999H275.843ZM276.843 67H263.787V69H276.843V67ZM274.387 68V56.48H272.387V68H274.387ZM273.387 57.48H310.731V55.48H273.387V57.48ZM309.731 56.48V68H311.731V56.48H309.731ZM310.731 67H273.387V69H310.731V67ZM274.387 39.104V27.968H272.387V39.104H274.387ZM273.387 28.968H307.371V26.968H273.387V28.968ZM306.371 27.968V39.104H308.371V27.968H306.371ZM307.371 38.104H273.387V40.104H307.371V38.104ZM274.387 12.032V0.511999H272.387V12.032H274.387ZM273.387 1.512H310.251V-0.488001H273.387V1.512ZM309.251 0.511999V12.032H311.251V0.511999H309.251ZM310.251 11.032H273.387V13.032H310.251V11.032Z" fill="#009293" mask="url(#path-1-outside-1_45_130)"/>
</svg>
