<svg width="24" height="25" viewBox="0 0 24 25" fill="none" xmlns="http://www.w3.org/2000/svg">
<g clip-path="url(#clip0_244_38)">
<path d="M12.8651 12.2079C12.8658 12.9852 13.0134 13.7554 13.3001 14.4779C13.5503 15.101 13.9586 15.6482 14.4846 16.0655C15.0107 16.4829 15.6364 16.756 16.3001 16.8579L19.3301 17.3279C19.9435 17.424 20.5716 17.3425 21.1401 17.0929C21.6885 16.857 22.1563 16.4667 22.4866 15.9695C22.8169 15.4723 22.9953 14.8898 23.0001 14.2929V10.4979H23.2451C23.3777 10.4979 23.5049 10.4452 23.5987 10.3514C23.6924 10.2577 23.7451 10.1305 23.7451 9.99787V9.06787C23.7451 8.93526 23.6924 8.80809 23.5987 8.71432C23.5049 8.62055 23.3777 8.56787 23.2451 8.56787H22.3101L15.7451 8.95287C14.8503 9.00695 14.0043 9.37939 13.3601 10.0029C13.0422 10.3189 12.6134 10.4983 12.1651 10.5029H11.8351C11.3868 10.4983 10.9581 10.3189 10.6401 10.0029C9.99595 9.37939 9.14997 9.00695 8.25512 8.95287L1.69012 8.56787H0.745117C0.612509 8.56787 0.485332 8.62055 0.391564 8.71432C0.297796 8.80809 0.245117 8.93526 0.245117 9.06787V10.0179C0.245117 10.1505 0.297796 10.2777 0.391564 10.3714C0.485332 10.4652 0.612509 10.5179 0.745117 10.5179H1.00012V14.3129C1.00451 14.9092 1.18221 15.4914 1.51156 15.9885C1.84091 16.4856 2.30771 16.8763 2.85512 17.1129C3.42362 17.3625 4.05172 17.444 4.66512 17.3479L7.69512 16.8779C8.35883 16.7759 8.98454 16.5029 9.51059 16.0855C10.0366 15.6682 10.4449 15.121 10.6951 14.4979C10.9818 13.7754 11.1294 13.0052 11.1301 12.2279C11.1308 12.1924 11.1384 12.1574 11.1526 12.1249C11.1667 12.0924 11.1872 12.063 11.2127 12.0384C11.2383 12.0138 11.2684 11.9945 11.3014 11.9815C11.3344 11.9685 11.3697 11.9622 11.4051 11.9629H12.5851C12.6543 11.96 12.7219 11.9838 12.7741 12.0294C12.8262 12.075 12.8588 12.1389 12.8651 12.2079Z" fill="#87898C"/>
<path d="M23.2551 8.56787H22.3101L15.7451 8.95287C14.8503 9.00695 14.0043 9.37939 13.3601 10.0029C13.0422 10.3189 12.6134 10.4983 12.1651 10.5029H11.8351C11.3868 10.4983 10.9581 10.3189 10.6401 10.0029C9.99595 9.37939 9.14997 9.00695 8.25512 8.95287L1.69012 8.56787H0.745117C0.612509 8.56787 0.485332 8.62055 0.391564 8.71432C0.297796 8.80809 0.245117 8.93526 0.245117 9.06787V10.0729C0.262098 9.95273 0.322184 9.84287 0.414177 9.76375C0.506169 9.68464 0.623791 9.64168 0.745117 9.64287H1.69012L8.25512 10.0229C9.14931 10.0756 9.99521 10.4462 10.6401 11.0679C10.9569 11.3857 11.3864 11.5654 11.8351 11.5679H12.1651C12.6138 11.5654 13.0434 11.3857 13.3601 11.0679C14.0043 10.4444 14.8503 10.0719 15.7451 10.0179L22.3101 9.63787H23.2551C23.3764 9.63668 23.4941 9.67964 23.5861 9.75875C23.6781 9.83787 23.7381 9.94773 23.7551 10.0679C23.7551 10.0679 23.7551 10.0279 23.7551 10.0129V9.06787C23.7551 8.93526 23.7024 8.80809 23.6087 8.71432C23.5149 8.62055 23.3877 8.56787 23.2551 8.56787Z" fill="#BDBEC0"/>
<path d="M23.2551 8.56787H22.3101L15.7451 8.95287C14.8503 9.00695 14.0043 9.37939 13.3601 10.0029C13.0422 10.3189 12.6134 10.4983 12.1651 10.5029H11.8351C11.3868 10.4983 10.9581 10.3189 10.6401 10.0029C9.99595 9.37939 9.14997 9.00695 8.25512 8.95287L1.69012 8.56787H0.745117C0.612509 8.56787 0.485332 8.62055 0.391564 8.71432C0.297796 8.80809 0.245117 8.93526 0.245117 9.06787V10.0179C0.245117 10.1505 0.297796 10.2777 0.391564 10.3714C0.485332 10.4652 0.612509 10.5179 0.745117 10.5179H1.00012V14.3129C1.00451 14.9092 1.18221 15.4914 1.51156 15.9885C1.84091 16.4856 2.30771 16.8763 2.85512 17.1129C3.42362 17.3625 4.05172 17.444 4.66512 17.3479L7.70012 16.8779C8.36383 16.7759 8.98954 16.5029 9.51559 16.0855C10.0416 15.6682 10.4499 15.121 10.7001 14.4979C10.9868 13.7754 11.1344 13.0052 11.1351 12.2279C11.1358 12.1924 11.1434 12.1574 11.1576 12.1249C11.1717 12.0924 11.1922 12.063 11.2177 12.0384C11.2433 12.0138 11.2734 11.9945 11.3064 11.9815C11.3394 11.9685 11.3747 11.9622 11.4101 11.9629H12.5901C12.6256 11.9622 12.6608 11.9685 12.6938 11.9815C12.7268 11.9945 12.757 12.0138 12.7825 12.0384C12.8081 12.063 12.8285 12.0924 12.8427 12.1249C12.8568 12.1574 12.8645 12.1924 12.8651 12.2279C12.8658 13.0052 13.0134 13.7754 13.3001 14.4979C13.5503 15.121 13.9586 15.6682 14.4846 16.0855C15.0107 16.5029 15.6364 16.7759 16.3001 16.8779L19.3351 17.3479C19.9485 17.444 20.5766 17.3625 21.1451 17.1129C21.6956 16.8749 22.1645 16.4812 22.4941 15.9801C22.8237 15.4791 22.9996 14.8926 23.0001 14.2929V10.4979H23.2451C23.3777 10.4979 23.5049 10.4452 23.5987 10.3514C23.6924 10.2577 23.7451 10.1305 23.7451 9.99787V9.06787C23.7451 8.93698 23.6938 8.81129 23.6022 8.71781C23.5106 8.62432 23.386 8.57049 23.2551 8.56787Z" stroke="#45413C" stroke-width="0.5" stroke-linecap="round" stroke-linejoin="round"/>
<path opacity="0.15" d="M6.30957 19.5579C6.30957 19.6577 6.45675 19.7565 6.7427 19.8487C7.02865 19.9409 7.44777 20.0247 7.97613 20.0953C8.5045 20.1658 9.13176 20.2218 9.8221 20.26C10.5124 20.2982 11.2523 20.3179 11.9996 20.3179C12.7468 20.3179 13.4867 20.2982 14.177 20.26C14.8674 20.2218 15.4946 20.1658 16.023 20.0953C16.5514 20.0247 16.9705 19.9409 17.2564 19.8487C17.5424 19.7565 17.6896 19.6577 17.6896 19.5579C17.6896 19.3563 17.0901 19.163 16.023 19.0205C14.9559 18.8779 13.5087 18.7979 11.9996 18.7979C10.4905 18.7979 9.04321 18.8779 7.97613 19.0205C6.90905 19.163 6.30957 19.3563 6.30957 19.5579Z" fill="#45413C"/>
<path d="M7.03492 15.8579L4.69492 16.1829C4.41052 16.2219 4.12113 16.2024 3.84457 16.1254C3.568 16.0485 3.31009 15.9158 3.08671 15.7355C2.86332 15.5552 2.67918 15.3311 2.54559 15.077C2.41201 14.8229 2.33181 14.5442 2.30992 14.2579L2.14492 12.0679C2.12442 11.789 2.16383 11.509 2.26051 11.2466C2.35719 10.9842 2.5089 10.7455 2.70545 10.5466C2.90199 10.3477 3.13883 10.1932 3.40004 10.0933C3.66126 9.99353 3.94081 9.95077 4.21992 9.96793L8.18992 10.2179C8.64409 10.2463 9.06865 10.4529 9.37114 10.7929C9.67364 11.1328 9.82955 11.5785 9.80492 12.0329L9.76492 12.8829C9.72754 13.6191 9.43435 14.3192 8.93595 14.8623C8.43755 15.4054 7.76521 15.7576 7.03492 15.8579Z" fill="#00B8F0"/>
<path d="M8.18955 10.1979L4.21955 9.94788C3.93862 9.93038 3.65723 9.9736 3.39449 10.0746C3.13176 10.1756 2.89386 10.332 2.69698 10.5331C2.5001 10.7343 2.34885 10.9755 2.25352 11.2403C2.1582 11.5051 2.12103 11.7874 2.14455 12.0679L2.30955 14.2779C2.33143 14.5641 2.41163 14.8429 2.54522 15.097C2.6788 15.351 2.86295 15.5751 3.08634 15.7554C3.30972 15.9357 3.56763 16.0684 3.84419 16.1454C4.12076 16.2223 4.41014 16.2419 4.69455 16.2029H4.86455L8.36455 10.2629L8.18955 10.1979Z" fill="#4ACFFF"/>
<path d="M7.03492 15.8579L4.69492 16.1829C4.41052 16.2219 4.12113 16.2024 3.84457 16.1254C3.568 16.0485 3.31009 15.9158 3.08671 15.7355C2.86332 15.5552 2.67918 15.3311 2.54559 15.077C2.41201 14.8229 2.33181 14.5442 2.30992 14.2579L2.14492 12.0679C2.12442 11.789 2.16383 11.509 2.26051 11.2466C2.35719 10.9842 2.5089 10.7455 2.70545 10.5466C2.90199 10.3477 3.13883 10.1932 3.40004 10.0933C3.66126 9.99353 3.94081 9.95077 4.21992 9.96793L8.18992 10.2179C8.64409 10.2463 9.06865 10.4529 9.37114 10.7929C9.67364 11.1328 9.82955 11.5785 9.80492 12.0329L9.76492 12.8829C9.72754 13.6191 9.43435 14.3192 8.93595 14.8623C8.43755 15.4054 7.76521 15.7576 7.03492 15.8579Z" stroke="#45413C" stroke-width="0.5" stroke-linecap="round" stroke-linejoin="round"/>
<path d="M16.9649 15.8579L19.3049 16.1829C19.5893 16.2219 19.8787 16.2024 20.1553 16.1254C20.4318 16.0485 20.6897 15.9158 20.9131 15.7355C21.1365 15.5552 21.3207 15.3311 21.4542 15.077C21.5878 14.8229 21.668 14.5442 21.6899 14.2579L21.8549 12.0679C21.8754 11.789 21.836 11.509 21.7393 11.2466C21.6426 10.9842 21.4909 10.7455 21.2944 10.5466C21.0978 10.3477 20.861 10.1932 20.5998 10.0933C20.3386 9.99353 20.059 9.95077 19.7799 9.96793L15.8099 10.2179C15.3557 10.2463 14.9312 10.4529 14.6287 10.7929C14.3262 11.1328 14.1703 11.5785 14.1949 12.0329L14.2349 12.8829C14.2723 13.6191 14.5655 14.3192 15.0639 14.8623C15.5623 15.4054 16.2346 15.7576 16.9649 15.8579Z" fill="#00B8F0"/>
<path d="M20.4149 10.0129C20.2084 9.95574 19.9937 9.93376 19.7799 9.94787L15.8099 10.1979C15.3557 10.2262 14.9312 10.4329 14.6287 10.7728C14.3262 11.1128 14.1703 11.5585 14.1949 12.0129L14.2349 12.8629C14.2655 13.603 14.5551 14.3089 15.0531 14.8573C15.5512 15.4056 16.2261 15.7615 16.9599 15.8629L20.4149 10.0129Z" fill="#4ACFFF"/>
<path d="M16.9649 15.8579L19.3049 16.1829C19.5893 16.2219 19.8787 16.2024 20.1553 16.1254C20.4318 16.0485 20.6897 15.9158 20.9131 15.7355C21.1365 15.5552 21.3207 15.3311 21.4542 15.077C21.5878 14.8229 21.668 14.5442 21.6899 14.2579L21.8549 12.0679C21.8754 11.789 21.836 11.509 21.7393 11.2466C21.6426 10.9842 21.4909 10.7455 21.2944 10.5466C21.0978 10.3477 20.861 10.1932 20.5998 10.0933C20.3386 9.99353 20.059 9.95077 19.7799 9.96793L15.8099 10.2179C15.3557 10.2463 14.9312 10.4529 14.6287 10.7929C14.3262 11.1328 14.1703 11.5785 14.1949 12.0329L14.2349 12.8829C14.2723 13.6191 14.5655 14.3192 15.0639 14.8623C15.5623 15.4054 16.2346 15.7576 16.9649 15.8579Z" stroke="#45413C" stroke-width="0.5" stroke-linecap="round" stroke-linejoin="round"/>
</g>
<defs>
<clipPath id="clip0_244_38">
<rect width="24" height="24" fill="white" transform="translate(0 0.0678711)"/>
</clipPath>
</defs>
</svg>
