<svg width="40" height="40" viewBox="0 0 40 40" fill="none" xmlns="http://www.w3.org/2000/svg">
<path d="M31.667 11.6667H26.667V10C26.667 8.2319 25.9646 6.53621 24.7144 5.28596C23.4641 4.03572 21.7684 3.33334 20.0003 3.33334C18.2322 3.33334 16.5365 4.03572 15.2863 5.28596C14.036 6.53621 13.3337 8.2319 13.3337 10V11.6667H8.33366C7.89163 11.6667 7.46771 11.8423 7.15515 12.1548C6.84259 12.4674 6.66699 12.8913 6.66699 13.3333V31.6667C6.66699 32.9928 7.19378 34.2645 8.13146 35.2022C9.06914 36.1399 10.3409 36.6667 11.667 36.6667H28.3337C29.6597 36.6667 30.9315 36.1399 31.8692 35.2022C32.8069 34.2645 33.3337 32.9928 33.3337 31.6667V13.3333C33.3337 12.8913 33.1581 12.4674 32.8455 12.1548C32.5329 11.8423 32.109 11.6667 31.667 11.6667ZM16.667 10C16.667 9.11595 17.0182 8.26811 17.6433 7.64299C18.2684 7.01787 19.1163 6.66668 20.0003 6.66668C20.8844 6.66668 21.7322 7.01787 22.3573 7.64299C22.9825 8.26811 23.3337 9.11595 23.3337 10V11.6667H16.667V10ZM30.0003 31.6667C30.0003 32.1087 29.8247 32.5326 29.5122 32.8452C29.1996 33.1577 28.7757 33.3333 28.3337 33.3333H11.667C11.225 33.3333 10.801 33.1577 10.4885 32.8452C10.1759 32.5326 10.0003 32.1087 10.0003 31.6667V15H13.3337V16.6667C13.3337 17.1087 13.5093 17.5326 13.8218 17.8452C14.1344 18.1577 14.5583 18.3333 15.0003 18.3333C15.4424 18.3333 15.8663 18.1577 16.1788 17.8452C16.4914 17.5326 16.667 17.1087 16.667 16.6667V15H23.3337V16.6667C23.3337 17.1087 23.5093 17.5326 23.8218 17.8452C24.1344 18.1577 24.5583 18.3333 25.0003 18.3333C25.4424 18.3333 25.8663 18.1577 26.1788 17.8452C26.4914 17.5326 26.667 17.1087 26.667 16.6667V15H30.0003V31.6667Z" fill="white"/>
<circle cx="31" cy="12" r="6" fill="#DE1B1B"/>
</svg>
