<svg width="24" height="25" viewBox="0 0 24 25" fill="none" xmlns="http://www.w3.org/2000/svg">
<path d="M2.5 9.56787H21.5V19.0679H2.5V9.56787Z" fill="#CFD8DC"/>
<path d="M2.5 19.0679H21.5V21.0679H2.5V19.0679Z" fill="#B0BEC5"/>
<path d="M13.5 12.0679H19.5V21.0679H13.5V12.0679Z" fill="#455A64"/>
<path d="M4.5 12.0679H11.5V17.5679H4.5V12.0679Z" fill="#E3F2FD"/>
<path d="M5 12.5679H11V17.0679H5V12.5679Z" fill="#1E88E5"/>
<path d="M18.25 16.8179C18.1 16.8179 18 16.9179 18 17.0679V18.0679C18 18.2179 18.1 18.3179 18.25 18.3179C18.4 18.3179 18.5 18.2179 18.5 18.0679V17.0679C18.5 16.9179 18.4 16.8179 18.25 16.8179Z" fill="#90A4AE"/>
<path d="M12 11.0679C12.8284 11.0679 13.5 10.3963 13.5 9.56787C13.5 8.73944 12.8284 8.06787 12 8.06787C11.1716 8.06787 10.5 8.73944 10.5 9.56787C10.5 10.3963 11.1716 11.0679 12 11.0679Z" fill="#558B2F"/>
<path d="M18 11.0679C18.8284 11.0679 19.5 10.3963 19.5 9.56787C19.5 8.73944 18.8284 8.06787 18 8.06787C17.1716 8.06787 16.5 8.73944 16.5 9.56787C16.5 10.3963 17.1716 11.0679 18 11.0679Z" fill="#558B2F"/>
<path d="M6 11.0679C6.82843 11.0679 7.5 10.3963 7.5 9.56787C7.5 8.73944 6.82843 8.06787 6 8.06787C5.17157 8.06787 4.5 8.73944 4.5 9.56787C4.5 10.3963 5.17157 11.0679 6 11.0679Z" fill="#558B2F"/>
<path d="M20 3.06787H4C3.45 3.06787 3 3.51787 3 4.06787V5.56787H21V4.06787C21 3.51787 20.55 3.06787 20 3.06787ZM10.5 5.56787H13.5V9.56787H10.5V5.56787ZM18.5 5.56787H16L16.5 9.56787H19.5L18.5 5.56787ZM5.5 5.56787H8L7.5 9.56787H4.5L5.5 5.56787Z" fill="#7CB342"/>
<path d="M15 11.0679C15.8284 11.0679 16.5 10.3963 16.5 9.56787C16.5 8.73944 15.8284 8.06787 15 8.06787C14.1716 8.06787 13.5 8.73944 13.5 9.56787C13.5 10.3963 14.1716 11.0679 15 11.0679Z" fill="#FFA000"/>
<path d="M22.5 9.56787C22.5 10.4179 21.85 11.0679 21 11.0679C20.15 11.0679 19.5 10.4179 19.5 9.56787C19.5 8.71787 20.15 8.06787 21 8.06787L22.5 9.56787Z" fill="#FFA000"/>
<path d="M9 11.0679C9.82843 11.0679 10.5 10.3963 10.5 9.56787C10.5 8.73944 9.82843 8.06787 9 8.06787C8.17157 8.06787 7.5 8.73944 7.5 9.56787C7.5 10.3963 8.17157 11.0679 9 11.0679Z" fill="#FFA000"/>
<path d="M1.5 9.56787C1.5 10.4179 2.15 11.0679 3 11.0679C3.85 11.0679 4.5 10.4179 4.5 9.56787C4.5 8.71787 3.85 8.06787 3 8.06787L1.5 9.56787Z" fill="#FFA000"/>
<path d="M16 5.56787H13.5V9.56787H16.5L16 5.56787ZM21 5.56787H18.5L19.5 9.56787H22.5L21 5.56787ZM8 5.56787H10.5V9.56787H7.5L8 5.56787ZM3 5.56787H5.5L4.5 9.56787H1.5L3 5.56787Z" fill="#FFC107"/>
</svg>
